<mxfile host="app.diagrams.net" agent="Mozilla/5.0 (Windows NT 10.0; Win64; x64) AppleWebKit/537.36 (KHTML, like Gecko) Chrome/133.0.0.0 Safari/537.36" version="26.1.0">
  <diagram name="ERD" id="lRVvmqKRRtHeKYtkKeON">
    <mxGraphModel dx="3216" dy="1979" grid="1" gridSize="10" guides="1" tooltips="1" connect="1" arrows="1" fold="1" page="1" pageScale="1" pageWidth="827" pageHeight="1169" math="0" shadow="0" adaptiveColors="auto">
      <root>
        <mxCell id="0" />
        <mxCell id="1" parent="0" />
        <mxCell id="-Ajo2ekiVwMD1QqtX69g-559" value="日程事项表&#xa;`agenda`" style="shape=table;startSize=30;container=1;collapsible=1;childLayout=tableLayout;fixedRows=1;rowLines=0;fontStyle=1;align=center;resizeLast=1;rounded=1;labelBackgroundColor=none;fillColor=#A8DADC;strokeColor=#457B9D;fontColor=#1D3557;" vertex="1" parent="1">
          <mxGeometry x="-440" y="160" width="180" height="420" as="geometry" />
        </mxCell>
        <mxCell id="-Ajo2ekiVwMD1QqtX69g-560" value="" style="shape=tableRow;horizontal=0;startSize=0;swimlaneHead=0;swimlaneBody=0;fillColor=none;collapsible=0;dropTarget=0;points=[[0,0.5],[1,0.5]];portConstraint=eastwest;strokeColor=#457B9D;top=0;left=0;right=0;bottom=1;rounded=1;labelBackgroundColor=none;fontColor=#1D3557;" vertex="1" parent="-Ajo2ekiVwMD1QqtX69g-559">
          <mxGeometry y="30" width="180" height="30" as="geometry" />
        </mxCell>
        <mxCell id="-Ajo2ekiVwMD1QqtX69g-561" value="PK" style="shape=partialRectangle;overflow=hidden;connectable=0;fillColor=none;strokeColor=#457B9D;top=0;left=0;bottom=0;right=0;fontStyle=1;rounded=1;labelBackgroundColor=none;fontColor=#1D3557;" vertex="1" parent="-Ajo2ekiVwMD1QqtX69g-560">
          <mxGeometry width="30" height="30" as="geometry">
            <mxRectangle width="30" height="30" as="alternateBounds" />
          </mxGeometry>
        </mxCell>
        <mxCell id="-Ajo2ekiVwMD1QqtX69g-562" value="`id`" style="shape=partialRectangle;overflow=hidden;connectable=0;fillColor=none;align=left;strokeColor=#457B9D;top=0;left=0;bottom=0;right=0;spacingLeft=6;fontStyle=5;rounded=1;labelBackgroundColor=none;fontColor=#1D3557;" vertex="1" parent="-Ajo2ekiVwMD1QqtX69g-560">
          <mxGeometry x="30" width="150" height="30" as="geometry">
            <mxRectangle width="150" height="30" as="alternateBounds" />
          </mxGeometry>
        </mxCell>
        <mxCell id="-Ajo2ekiVwMD1QqtX69g-563" value="" style="shape=tableRow;horizontal=0;startSize=0;swimlaneHead=0;swimlaneBody=0;fillColor=none;collapsible=0;dropTarget=0;points=[[0,0.5],[1,0.5]];portConstraint=eastwest;strokeColor=#457B9D;top=0;left=0;right=0;bottom=0;rounded=1;labelBackgroundColor=none;fontColor=#1D3557;" vertex="1" parent="-Ajo2ekiVwMD1QqtX69g-559">
          <mxGeometry y="60" width="180" height="30" as="geometry" />
        </mxCell>
        <mxCell id="-Ajo2ekiVwMD1QqtX69g-564" value="" style="shape=partialRectangle;overflow=hidden;connectable=0;fillColor=none;strokeColor=#457B9D;top=0;left=0;bottom=0;right=0;rounded=1;labelBackgroundColor=none;fontColor=#1D3557;" vertex="1" parent="-Ajo2ekiVwMD1QqtX69g-563">
          <mxGeometry width="30" height="30" as="geometry">
            <mxRectangle width="30" height="30" as="alternateBounds" />
          </mxGeometry>
        </mxCell>
        <mxCell id="-Ajo2ekiVwMD1QqtX69g-565" value="`parent_id`" style="shape=partialRectangle;overflow=hidden;connectable=0;fillColor=none;align=left;strokeColor=#457B9D;top=0;left=0;bottom=0;right=0;spacingLeft=6;rounded=1;labelBackgroundColor=none;fontColor=#1D3557;" vertex="1" parent="-Ajo2ekiVwMD1QqtX69g-563">
          <mxGeometry x="30" width="150" height="30" as="geometry">
            <mxRectangle width="150" height="30" as="alternateBounds" />
          </mxGeometry>
        </mxCell>
        <mxCell id="-Ajo2ekiVwMD1QqtX69g-566" value="" style="shape=tableRow;horizontal=0;startSize=0;swimlaneHead=0;swimlaneBody=0;fillColor=none;collapsible=0;dropTarget=0;points=[[0,0.5],[1,0.5]];portConstraint=eastwest;strokeColor=#457B9D;top=0;left=0;right=0;bottom=0;rounded=1;labelBackgroundColor=none;fontColor=#1D3557;" vertex="1" parent="-Ajo2ekiVwMD1QqtX69g-559">
          <mxGeometry y="90" width="180" height="30" as="geometry" />
        </mxCell>
        <mxCell id="-Ajo2ekiVwMD1QqtX69g-567" value="" style="shape=partialRectangle;overflow=hidden;connectable=0;fillColor=none;strokeColor=#457B9D;top=0;left=0;bottom=0;right=0;rounded=1;labelBackgroundColor=none;fontColor=#1D3557;" vertex="1" parent="-Ajo2ekiVwMD1QqtX69g-566">
          <mxGeometry width="30" height="30" as="geometry">
            <mxRectangle width="30" height="30" as="alternateBounds" />
          </mxGeometry>
        </mxCell>
        <mxCell id="-Ajo2ekiVwMD1QqtX69g-568" value="`project_id`" style="shape=partialRectangle;overflow=hidden;connectable=0;fillColor=none;align=left;strokeColor=#457B9D;top=0;left=0;bottom=0;right=0;spacingLeft=6;rounded=1;labelBackgroundColor=none;fontColor=#1D3557;" vertex="1" parent="-Ajo2ekiVwMD1QqtX69g-566">
          <mxGeometry x="30" width="150" height="30" as="geometry">
            <mxRectangle width="150" height="30" as="alternateBounds" />
          </mxGeometry>
        </mxCell>
        <mxCell id="-Ajo2ekiVwMD1QqtX69g-569" value="" style="shape=tableRow;horizontal=0;startSize=0;swimlaneHead=0;swimlaneBody=0;fillColor=none;collapsible=0;dropTarget=0;points=[[0,0.5],[1,0.5]];portConstraint=eastwest;strokeColor=#457B9D;top=0;left=0;right=0;bottom=0;rounded=1;labelBackgroundColor=none;fontColor=#1D3557;" vertex="1" parent="-Ajo2ekiVwMD1QqtX69g-559">
          <mxGeometry y="120" width="180" height="30" as="geometry" />
        </mxCell>
        <mxCell id="-Ajo2ekiVwMD1QqtX69g-570" value="" style="shape=partialRectangle;overflow=hidden;connectable=0;fillColor=none;strokeColor=#457B9D;top=0;left=0;bottom=0;right=0;rounded=1;labelBackgroundColor=none;fontColor=#1D3557;" vertex="1" parent="-Ajo2ekiVwMD1QqtX69g-569">
          <mxGeometry width="30" height="30" as="geometry">
            <mxRectangle width="30" height="30" as="alternateBounds" />
          </mxGeometry>
        </mxCell>
        <mxCell id="-Ajo2ekiVwMD1QqtX69g-571" value="`create_by`" style="shape=partialRectangle;overflow=hidden;connectable=0;fillColor=none;align=left;strokeColor=#457B9D;top=0;left=0;bottom=0;right=0;spacingLeft=6;rounded=1;labelBackgroundColor=none;fontColor=#1D3557;" vertex="1" parent="-Ajo2ekiVwMD1QqtX69g-569">
          <mxGeometry x="30" width="150" height="30" as="geometry">
            <mxRectangle width="150" height="30" as="alternateBounds" />
          </mxGeometry>
        </mxCell>
        <mxCell id="-Ajo2ekiVwMD1QqtX69g-572" value="" style="shape=tableRow;horizontal=0;startSize=0;swimlaneHead=0;swimlaneBody=0;fillColor=none;collapsible=0;dropTarget=0;points=[[0,0.5],[1,0.5]];portConstraint=eastwest;strokeColor=#457B9D;top=0;left=0;right=0;bottom=0;rounded=1;labelBackgroundColor=none;fontColor=#1D3557;" vertex="1" parent="-Ajo2ekiVwMD1QqtX69g-559">
          <mxGeometry y="150" width="180" height="30" as="geometry" />
        </mxCell>
        <mxCell id="-Ajo2ekiVwMD1QqtX69g-573" value="" style="shape=partialRectangle;overflow=hidden;connectable=0;fillColor=none;strokeColor=#457B9D;top=0;left=0;bottom=0;right=0;rounded=1;labelBackgroundColor=none;fontColor=#1D3557;" vertex="1" parent="-Ajo2ekiVwMD1QqtX69g-572">
          <mxGeometry width="30" height="30" as="geometry">
            <mxRectangle width="30" height="30" as="alternateBounds" />
          </mxGeometry>
        </mxCell>
        <mxCell id="-Ajo2ekiVwMD1QqtX69g-574" value="`update_by`" style="shape=partialRectangle;overflow=hidden;connectable=0;fillColor=none;align=left;strokeColor=#457B9D;top=0;left=0;bottom=0;right=0;spacingLeft=6;rounded=1;labelBackgroundColor=none;fontColor=#1D3557;" vertex="1" parent="-Ajo2ekiVwMD1QqtX69g-572">
          <mxGeometry x="30" width="150" height="30" as="geometry">
            <mxRectangle width="150" height="30" as="alternateBounds" />
          </mxGeometry>
        </mxCell>
        <mxCell id="-Ajo2ekiVwMD1QqtX69g-575" value="" style="shape=tableRow;horizontal=0;startSize=0;swimlaneHead=0;swimlaneBody=0;fillColor=none;collapsible=0;dropTarget=0;points=[[0,0.5],[1,0.5]];portConstraint=eastwest;strokeColor=#457B9D;top=0;left=0;right=0;bottom=0;rounded=1;labelBackgroundColor=none;fontColor=#1D3557;" vertex="1" parent="-Ajo2ekiVwMD1QqtX69g-559">
          <mxGeometry y="180" width="180" height="30" as="geometry" />
        </mxCell>
        <mxCell id="-Ajo2ekiVwMD1QqtX69g-576" value="" style="shape=partialRectangle;overflow=hidden;connectable=0;fillColor=none;strokeColor=#457B9D;top=0;left=0;bottom=0;right=0;rounded=1;labelBackgroundColor=none;fontColor=#1D3557;" vertex="1" parent="-Ajo2ekiVwMD1QqtX69g-575">
          <mxGeometry width="30" height="30" as="geometry">
            <mxRectangle width="30" height="30" as="alternateBounds" />
          </mxGeometry>
        </mxCell>
        <mxCell id="-Ajo2ekiVwMD1QqtX69g-577" value="`create_date`" style="shape=partialRectangle;overflow=hidden;connectable=0;fillColor=none;align=left;strokeColor=#457B9D;top=0;left=0;bottom=0;right=0;spacingLeft=6;rounded=1;labelBackgroundColor=none;fontColor=#1D3557;" vertex="1" parent="-Ajo2ekiVwMD1QqtX69g-575">
          <mxGeometry x="30" width="150" height="30" as="geometry">
            <mxRectangle width="150" height="30" as="alternateBounds" />
          </mxGeometry>
        </mxCell>
        <mxCell id="-Ajo2ekiVwMD1QqtX69g-578" value="" style="shape=tableRow;horizontal=0;startSize=0;swimlaneHead=0;swimlaneBody=0;fillColor=none;collapsible=0;dropTarget=0;points=[[0,0.5],[1,0.5]];portConstraint=eastwest;strokeColor=#457B9D;top=0;left=0;right=0;bottom=0;rounded=1;labelBackgroundColor=none;fontColor=#1D3557;" vertex="1" parent="-Ajo2ekiVwMD1QqtX69g-559">
          <mxGeometry y="210" width="180" height="30" as="geometry" />
        </mxCell>
        <mxCell id="-Ajo2ekiVwMD1QqtX69g-579" value="" style="shape=partialRectangle;overflow=hidden;connectable=0;fillColor=none;strokeColor=#457B9D;top=0;left=0;bottom=0;right=0;rounded=1;labelBackgroundColor=none;fontColor=#1D3557;" vertex="1" parent="-Ajo2ekiVwMD1QqtX69g-578">
          <mxGeometry width="30" height="30" as="geometry">
            <mxRectangle width="30" height="30" as="alternateBounds" />
          </mxGeometry>
        </mxCell>
        <mxCell id="-Ajo2ekiVwMD1QqtX69g-580" value="`update_date`" style="shape=partialRectangle;overflow=hidden;connectable=0;fillColor=none;align=left;strokeColor=#457B9D;top=0;left=0;bottom=0;right=0;spacingLeft=6;rounded=1;labelBackgroundColor=none;fontColor=#1D3557;" vertex="1" parent="-Ajo2ekiVwMD1QqtX69g-578">
          <mxGeometry x="30" width="150" height="30" as="geometry">
            <mxRectangle width="150" height="30" as="alternateBounds" />
          </mxGeometry>
        </mxCell>
        <mxCell id="-Ajo2ekiVwMD1QqtX69g-581" value="" style="shape=tableRow;horizontal=0;startSize=0;swimlaneHead=0;swimlaneBody=0;fillColor=none;collapsible=0;dropTarget=0;points=[[0,0.5],[1,0.5]];portConstraint=eastwest;strokeColor=#457B9D;top=0;left=0;right=0;bottom=0;rounded=1;labelBackgroundColor=none;fontColor=#1D3557;" vertex="1" parent="-Ajo2ekiVwMD1QqtX69g-559">
          <mxGeometry y="240" width="180" height="30" as="geometry" />
        </mxCell>
        <mxCell id="-Ajo2ekiVwMD1QqtX69g-582" value="" style="shape=partialRectangle;overflow=hidden;connectable=0;fillColor=none;strokeColor=#457B9D;top=0;left=0;bottom=0;right=0;rounded=1;labelBackgroundColor=none;fontColor=#1D3557;" vertex="1" parent="-Ajo2ekiVwMD1QqtX69g-581">
          <mxGeometry width="30" height="30" as="geometry">
            <mxRectangle width="30" height="30" as="alternateBounds" />
          </mxGeometry>
        </mxCell>
        <mxCell id="-Ajo2ekiVwMD1QqtX69g-583" value="`delete_flag`" style="shape=partialRectangle;overflow=hidden;connectable=0;fillColor=none;align=left;strokeColor=#457B9D;top=0;left=0;bottom=0;right=0;spacingLeft=6;rounded=1;labelBackgroundColor=none;fontColor=#1D3557;" vertex="1" parent="-Ajo2ekiVwMD1QqtX69g-581">
          <mxGeometry x="30" width="150" height="30" as="geometry">
            <mxRectangle width="150" height="30" as="alternateBounds" />
          </mxGeometry>
        </mxCell>
        <mxCell id="-Ajo2ekiVwMD1QqtX69g-584" value="" style="shape=tableRow;horizontal=0;startSize=0;swimlaneHead=0;swimlaneBody=0;fillColor=none;collapsible=0;dropTarget=0;points=[[0,0.5],[1,0.5]];portConstraint=eastwest;strokeColor=#457B9D;top=0;left=0;right=0;bottom=0;rounded=1;labelBackgroundColor=none;fontColor=#1D3557;" vertex="1" parent="-Ajo2ekiVwMD1QqtX69g-559">
          <mxGeometry y="270" width="180" height="30" as="geometry" />
        </mxCell>
        <mxCell id="-Ajo2ekiVwMD1QqtX69g-585" value="" style="shape=partialRectangle;overflow=hidden;connectable=0;fillColor=none;strokeColor=#457B9D;top=0;left=0;bottom=0;right=0;rounded=1;labelBackgroundColor=none;fontColor=#1D3557;" vertex="1" parent="-Ajo2ekiVwMD1QqtX69g-584">
          <mxGeometry width="30" height="30" as="geometry">
            <mxRectangle width="30" height="30" as="alternateBounds" />
          </mxGeometry>
        </mxCell>
        <mxCell id="-Ajo2ekiVwMD1QqtX69g-586" value="`schedule_detail_id`" style="shape=partialRectangle;overflow=hidden;connectable=0;fillColor=none;align=left;strokeColor=#457B9D;top=0;left=0;bottom=0;right=0;spacingLeft=6;rounded=1;labelBackgroundColor=none;fontColor=#1D3557;" vertex="1" parent="-Ajo2ekiVwMD1QqtX69g-584">
          <mxGeometry x="30" width="150" height="30" as="geometry">
            <mxRectangle width="150" height="30" as="alternateBounds" />
          </mxGeometry>
        </mxCell>
        <mxCell id="-Ajo2ekiVwMD1QqtX69g-587" value="" style="shape=tableRow;horizontal=0;startSize=0;swimlaneHead=0;swimlaneBody=0;fillColor=none;collapsible=0;dropTarget=0;points=[[0,0.5],[1,0.5]];portConstraint=eastwest;strokeColor=#457B9D;top=0;left=0;right=0;bottom=0;rounded=1;labelBackgroundColor=none;fontColor=#1D3557;" vertex="1" parent="-Ajo2ekiVwMD1QqtX69g-559">
          <mxGeometry y="300" width="180" height="30" as="geometry" />
        </mxCell>
        <mxCell id="-Ajo2ekiVwMD1QqtX69g-588" value="" style="shape=partialRectangle;overflow=hidden;connectable=0;fillColor=none;strokeColor=#457B9D;top=0;left=0;bottom=0;right=0;rounded=1;labelBackgroundColor=none;fontColor=#1D3557;" vertex="1" parent="-Ajo2ekiVwMD1QqtX69g-587">
          <mxGeometry width="30" height="30" as="geometry">
            <mxRectangle width="30" height="30" as="alternateBounds" />
          </mxGeometry>
        </mxCell>
        <mxCell id="-Ajo2ekiVwMD1QqtX69g-589" value="`agenda_status`" style="shape=partialRectangle;overflow=hidden;connectable=0;fillColor=none;align=left;strokeColor=#457B9D;top=0;left=0;bottom=0;right=0;spacingLeft=6;rounded=1;labelBackgroundColor=none;fontColor=#1D3557;" vertex="1" parent="-Ajo2ekiVwMD1QqtX69g-587">
          <mxGeometry x="30" width="150" height="30" as="geometry">
            <mxRectangle width="150" height="30" as="alternateBounds" />
          </mxGeometry>
        </mxCell>
        <mxCell id="-Ajo2ekiVwMD1QqtX69g-590" value="" style="shape=tableRow;horizontal=0;startSize=0;swimlaneHead=0;swimlaneBody=0;fillColor=none;collapsible=0;dropTarget=0;points=[[0,0.5],[1,0.5]];portConstraint=eastwest;strokeColor=#457B9D;top=0;left=0;right=0;bottom=0;rounded=1;labelBackgroundColor=none;fontColor=#1D3557;" vertex="1" parent="-Ajo2ekiVwMD1QqtX69g-559">
          <mxGeometry y="330" width="180" height="30" as="geometry" />
        </mxCell>
        <mxCell id="-Ajo2ekiVwMD1QqtX69g-591" value="" style="shape=partialRectangle;overflow=hidden;connectable=0;fillColor=none;strokeColor=#457B9D;top=0;left=0;bottom=0;right=0;rounded=1;labelBackgroundColor=none;fontColor=#1D3557;" vertex="1" parent="-Ajo2ekiVwMD1QqtX69g-590">
          <mxGeometry width="30" height="30" as="geometry">
            <mxRectangle width="30" height="30" as="alternateBounds" />
          </mxGeometry>
        </mxCell>
        <mxCell id="-Ajo2ekiVwMD1QqtX69g-592" value="`path_id`" style="shape=partialRectangle;overflow=hidden;connectable=0;fillColor=none;align=left;strokeColor=#457B9D;top=0;left=0;bottom=0;right=0;spacingLeft=6;rounded=1;labelBackgroundColor=none;fontColor=#1D3557;" vertex="1" parent="-Ajo2ekiVwMD1QqtX69g-590">
          <mxGeometry x="30" width="150" height="30" as="geometry">
            <mxRectangle width="150" height="30" as="alternateBounds" />
          </mxGeometry>
        </mxCell>
        <mxCell id="-Ajo2ekiVwMD1QqtX69g-593" value="" style="shape=tableRow;horizontal=0;startSize=0;swimlaneHead=0;swimlaneBody=0;fillColor=none;collapsible=0;dropTarget=0;points=[[0,0.5],[1,0.5]];portConstraint=eastwest;strokeColor=#457B9D;top=0;left=0;right=0;bottom=0;rounded=1;labelBackgroundColor=none;fontColor=#1D3557;" vertex="1" parent="-Ajo2ekiVwMD1QqtX69g-559">
          <mxGeometry y="360" width="180" height="30" as="geometry" />
        </mxCell>
        <mxCell id="-Ajo2ekiVwMD1QqtX69g-594" value="" style="shape=partialRectangle;overflow=hidden;connectable=0;fillColor=none;strokeColor=#457B9D;top=0;left=0;bottom=0;right=0;rounded=1;labelBackgroundColor=none;fontColor=#1D3557;" vertex="1" parent="-Ajo2ekiVwMD1QqtX69g-593">
          <mxGeometry width="30" height="30" as="geometry">
            <mxRectangle width="30" height="30" as="alternateBounds" />
          </mxGeometry>
        </mxCell>
        <mxCell id="-Ajo2ekiVwMD1QqtX69g-595" value="`charge_person_id`" style="shape=partialRectangle;overflow=hidden;connectable=0;fillColor=none;align=left;strokeColor=#457B9D;top=0;left=0;bottom=0;right=0;spacingLeft=6;rounded=1;labelBackgroundColor=none;fontColor=#1D3557;" vertex="1" parent="-Ajo2ekiVwMD1QqtX69g-593">
          <mxGeometry x="30" width="150" height="30" as="geometry">
            <mxRectangle width="150" height="30" as="alternateBounds" />
          </mxGeometry>
        </mxCell>
        <mxCell id="-Ajo2ekiVwMD1QqtX69g-596" value="" style="shape=tableRow;horizontal=0;startSize=0;swimlaneHead=0;swimlaneBody=0;fillColor=none;collapsible=0;dropTarget=0;points=[[0,0.5],[1,0.5]];portConstraint=eastwest;strokeColor=#457B9D;top=0;left=0;right=0;bottom=0;rounded=1;labelBackgroundColor=none;fontColor=#1D3557;" vertex="1" parent="-Ajo2ekiVwMD1QqtX69g-559">
          <mxGeometry y="390" width="180" height="30" as="geometry" />
        </mxCell>
        <mxCell id="-Ajo2ekiVwMD1QqtX69g-597" value="" style="shape=partialRectangle;overflow=hidden;connectable=0;fillColor=none;strokeColor=#457B9D;top=0;left=0;bottom=0;right=0;rounded=1;labelBackgroundColor=none;fontColor=#1D3557;" vertex="1" parent="-Ajo2ekiVwMD1QqtX69g-596">
          <mxGeometry width="30" height="30" as="geometry">
            <mxRectangle width="30" height="30" as="alternateBounds" />
          </mxGeometry>
        </mxCell>
        <mxCell id="-Ajo2ekiVwMD1QqtX69g-598" value="`comment`" style="shape=partialRectangle;overflow=hidden;connectable=0;fillColor=none;align=left;strokeColor=#457B9D;top=0;left=0;bottom=0;right=0;spacingLeft=6;rounded=1;labelBackgroundColor=none;fontColor=#1D3557;" vertex="1" parent="-Ajo2ekiVwMD1QqtX69g-596">
          <mxGeometry x="30" width="150" height="30" as="geometry">
            <mxRectangle width="150" height="30" as="alternateBounds" />
          </mxGeometry>
        </mxCell>
        <mxCell id="-Ajo2ekiVwMD1QqtX69g-633" value="日程基本信息表&#xa;`schedule_detail`" style="shape=table;startSize=30;container=1;collapsible=1;childLayout=tableLayout;fixedRows=1;rowLines=0;fontStyle=1;align=center;resizeLast=1;rounded=1;labelBackgroundColor=none;fillColor=#A8DADC;strokeColor=#457B9D;fontColor=#1D3557;" vertex="1" parent="1">
          <mxGeometry x="-680" y="160" width="180" height="390" as="geometry" />
        </mxCell>
        <mxCell id="-Ajo2ekiVwMD1QqtX69g-634" value="" style="shape=tableRow;horizontal=0;startSize=0;swimlaneHead=0;swimlaneBody=0;fillColor=none;collapsible=0;dropTarget=0;points=[[0,0.5],[1,0.5]];portConstraint=eastwest;strokeColor=#457B9D;top=0;left=0;right=0;bottom=1;rounded=1;labelBackgroundColor=none;fontColor=#1D3557;" vertex="1" parent="-Ajo2ekiVwMD1QqtX69g-633">
          <mxGeometry y="30" width="180" height="30" as="geometry" />
        </mxCell>
        <mxCell id="-Ajo2ekiVwMD1QqtX69g-635" value="PK" style="shape=partialRectangle;overflow=hidden;connectable=0;fillColor=none;strokeColor=#457B9D;top=0;left=0;bottom=0;right=0;fontStyle=1;rounded=1;labelBackgroundColor=none;fontColor=#1D3557;" vertex="1" parent="-Ajo2ekiVwMD1QqtX69g-634">
          <mxGeometry width="30" height="30" as="geometry">
            <mxRectangle width="30" height="30" as="alternateBounds" />
          </mxGeometry>
        </mxCell>
        <mxCell id="-Ajo2ekiVwMD1QqtX69g-636" value="`id`" style="shape=partialRectangle;overflow=hidden;connectable=0;fillColor=none;align=left;strokeColor=#457B9D;top=0;left=0;bottom=0;right=0;spacingLeft=6;fontStyle=5;rounded=1;labelBackgroundColor=none;fontColor=#1D3557;" vertex="1" parent="-Ajo2ekiVwMD1QqtX69g-634">
          <mxGeometry x="30" width="150" height="30" as="geometry">
            <mxRectangle width="150" height="30" as="alternateBounds" />
          </mxGeometry>
        </mxCell>
        <mxCell id="-Ajo2ekiVwMD1QqtX69g-637" value="" style="shape=tableRow;horizontal=0;startSize=0;swimlaneHead=0;swimlaneBody=0;fillColor=none;collapsible=0;dropTarget=0;points=[[0,0.5],[1,0.5]];portConstraint=eastwest;strokeColor=#457B9D;top=0;left=0;right=0;bottom=0;rounded=1;labelBackgroundColor=none;fontColor=#1D3557;" vertex="1" parent="-Ajo2ekiVwMD1QqtX69g-633">
          <mxGeometry y="60" width="180" height="30" as="geometry" />
        </mxCell>
        <mxCell id="-Ajo2ekiVwMD1QqtX69g-638" value="" style="shape=partialRectangle;overflow=hidden;connectable=0;fillColor=none;strokeColor=#457B9D;top=0;left=0;bottom=0;right=0;rounded=1;labelBackgroundColor=none;fontColor=#1D3557;" vertex="1" parent="-Ajo2ekiVwMD1QqtX69g-637">
          <mxGeometry width="30" height="30" as="geometry">
            <mxRectangle width="30" height="30" as="alternateBounds" />
          </mxGeometry>
        </mxCell>
        <mxCell id="-Ajo2ekiVwMD1QqtX69g-639" value="`schedule_panel_id`" style="shape=partialRectangle;overflow=hidden;connectable=0;fillColor=none;align=left;strokeColor=#457B9D;top=0;left=0;bottom=0;right=0;spacingLeft=6;rounded=1;labelBackgroundColor=none;fontColor=#1D3557;" vertex="1" parent="-Ajo2ekiVwMD1QqtX69g-637">
          <mxGeometry x="30" width="150" height="30" as="geometry">
            <mxRectangle width="150" height="30" as="alternateBounds" />
          </mxGeometry>
        </mxCell>
        <mxCell id="-Ajo2ekiVwMD1QqtX69g-640" value="" style="shape=tableRow;horizontal=0;startSize=0;swimlaneHead=0;swimlaneBody=0;fillColor=none;collapsible=0;dropTarget=0;points=[[0,0.5],[1,0.5]];portConstraint=eastwest;strokeColor=#457B9D;top=0;left=0;right=0;bottom=0;rounded=1;labelBackgroundColor=none;fontColor=#1D3557;" vertex="1" parent="-Ajo2ekiVwMD1QqtX69g-633">
          <mxGeometry y="90" width="180" height="30" as="geometry" />
        </mxCell>
        <mxCell id="-Ajo2ekiVwMD1QqtX69g-641" value="" style="shape=partialRectangle;overflow=hidden;connectable=0;fillColor=none;strokeColor=#457B9D;top=0;left=0;bottom=0;right=0;rounded=1;labelBackgroundColor=none;fontColor=#1D3557;" vertex="1" parent="-Ajo2ekiVwMD1QqtX69g-640">
          <mxGeometry width="30" height="30" as="geometry">
            <mxRectangle width="30" height="30" as="alternateBounds" />
          </mxGeometry>
        </mxCell>
        <mxCell id="-Ajo2ekiVwMD1QqtX69g-642" value="`title`" style="shape=partialRectangle;overflow=hidden;connectable=0;fillColor=none;align=left;strokeColor=#457B9D;top=0;left=0;bottom=0;right=0;spacingLeft=6;rounded=1;labelBackgroundColor=none;fontColor=#1D3557;" vertex="1" parent="-Ajo2ekiVwMD1QqtX69g-640">
          <mxGeometry x="30" width="150" height="30" as="geometry">
            <mxRectangle width="150" height="30" as="alternateBounds" />
          </mxGeometry>
        </mxCell>
        <mxCell id="-Ajo2ekiVwMD1QqtX69g-643" value="" style="shape=tableRow;horizontal=0;startSize=0;swimlaneHead=0;swimlaneBody=0;fillColor=none;collapsible=0;dropTarget=0;points=[[0,0.5],[1,0.5]];portConstraint=eastwest;strokeColor=#457B9D;top=0;left=0;right=0;bottom=0;rounded=1;labelBackgroundColor=none;fontColor=#1D3557;" vertex="1" parent="-Ajo2ekiVwMD1QqtX69g-633">
          <mxGeometry y="120" width="180" height="30" as="geometry" />
        </mxCell>
        <mxCell id="-Ajo2ekiVwMD1QqtX69g-644" value="" style="shape=partialRectangle;overflow=hidden;connectable=0;fillColor=none;strokeColor=#457B9D;top=0;left=0;bottom=0;right=0;rounded=1;labelBackgroundColor=none;fontColor=#1D3557;" vertex="1" parent="-Ajo2ekiVwMD1QqtX69g-643">
          <mxGeometry width="30" height="30" as="geometry">
            <mxRectangle width="30" height="30" as="alternateBounds" />
          </mxGeometry>
        </mxCell>
        <mxCell id="-Ajo2ekiVwMD1QqtX69g-645" value="`content`" style="shape=partialRectangle;overflow=hidden;connectable=0;fillColor=none;align=left;strokeColor=#457B9D;top=0;left=0;bottom=0;right=0;spacingLeft=6;rounded=1;labelBackgroundColor=none;fontColor=#1D3557;" vertex="1" parent="-Ajo2ekiVwMD1QqtX69g-643">
          <mxGeometry x="30" width="150" height="30" as="geometry">
            <mxRectangle width="150" height="30" as="alternateBounds" />
          </mxGeometry>
        </mxCell>
        <mxCell id="-Ajo2ekiVwMD1QqtX69g-646" value="" style="shape=tableRow;horizontal=0;startSize=0;swimlaneHead=0;swimlaneBody=0;fillColor=none;collapsible=0;dropTarget=0;points=[[0,0.5],[1,0.5]];portConstraint=eastwest;strokeColor=#457B9D;top=0;left=0;right=0;bottom=0;rounded=1;labelBackgroundColor=none;fontColor=#1D3557;" vertex="1" parent="-Ajo2ekiVwMD1QqtX69g-633">
          <mxGeometry y="150" width="180" height="30" as="geometry" />
        </mxCell>
        <mxCell id="-Ajo2ekiVwMD1QqtX69g-647" value="" style="shape=partialRectangle;overflow=hidden;connectable=0;fillColor=none;strokeColor=#457B9D;top=0;left=0;bottom=0;right=0;rounded=1;labelBackgroundColor=none;fontColor=#1D3557;" vertex="1" parent="-Ajo2ekiVwMD1QqtX69g-646">
          <mxGeometry width="30" height="30" as="geometry">
            <mxRectangle width="30" height="30" as="alternateBounds" />
          </mxGeometry>
        </mxCell>
        <mxCell id="-Ajo2ekiVwMD1QqtX69g-648" value="`type`" style="shape=partialRectangle;overflow=hidden;connectable=0;fillColor=none;align=left;strokeColor=#457B9D;top=0;left=0;bottom=0;right=0;spacingLeft=6;rounded=1;labelBackgroundColor=none;fontColor=#1D3557;" vertex="1" parent="-Ajo2ekiVwMD1QqtX69g-646">
          <mxGeometry x="30" width="150" height="30" as="geometry">
            <mxRectangle width="150" height="30" as="alternateBounds" />
          </mxGeometry>
        </mxCell>
        <mxCell id="-Ajo2ekiVwMD1QqtX69g-649" value="" style="shape=tableRow;horizontal=0;startSize=0;swimlaneHead=0;swimlaneBody=0;fillColor=none;collapsible=0;dropTarget=0;points=[[0,0.5],[1,0.5]];portConstraint=eastwest;strokeColor=#457B9D;top=0;left=0;right=0;bottom=0;rounded=1;labelBackgroundColor=none;fontColor=#1D3557;" vertex="1" parent="-Ajo2ekiVwMD1QqtX69g-633">
          <mxGeometry y="180" width="180" height="30" as="geometry" />
        </mxCell>
        <mxCell id="-Ajo2ekiVwMD1QqtX69g-650" value="" style="shape=partialRectangle;overflow=hidden;connectable=0;fillColor=none;strokeColor=#457B9D;top=0;left=0;bottom=0;right=0;rounded=1;labelBackgroundColor=none;fontColor=#1D3557;" vertex="1" parent="-Ajo2ekiVwMD1QqtX69g-649">
          <mxGeometry width="30" height="30" as="geometry">
            <mxRectangle width="30" height="30" as="alternateBounds" />
          </mxGeometry>
        </mxCell>
        <mxCell id="-Ajo2ekiVwMD1QqtX69g-651" value="`plan_start_time`" style="shape=partialRectangle;overflow=hidden;connectable=0;fillColor=none;align=left;strokeColor=#457B9D;top=0;left=0;bottom=0;right=0;spacingLeft=6;rounded=1;labelBackgroundColor=none;fontColor=#1D3557;" vertex="1" parent="-Ajo2ekiVwMD1QqtX69g-649">
          <mxGeometry x="30" width="150" height="30" as="geometry">
            <mxRectangle width="150" height="30" as="alternateBounds" />
          </mxGeometry>
        </mxCell>
        <mxCell id="-Ajo2ekiVwMD1QqtX69g-652" value="" style="shape=tableRow;horizontal=0;startSize=0;swimlaneHead=0;swimlaneBody=0;fillColor=none;collapsible=0;dropTarget=0;points=[[0,0.5],[1,0.5]];portConstraint=eastwest;strokeColor=#457B9D;top=0;left=0;right=0;bottom=0;rounded=1;labelBackgroundColor=none;fontColor=#1D3557;" vertex="1" parent="-Ajo2ekiVwMD1QqtX69g-633">
          <mxGeometry y="210" width="180" height="30" as="geometry" />
        </mxCell>
        <mxCell id="-Ajo2ekiVwMD1QqtX69g-653" value="" style="shape=partialRectangle;overflow=hidden;connectable=0;fillColor=none;strokeColor=#457B9D;top=0;left=0;bottom=0;right=0;rounded=1;labelBackgroundColor=none;fontColor=#1D3557;" vertex="1" parent="-Ajo2ekiVwMD1QqtX69g-652">
          <mxGeometry width="30" height="30" as="geometry">
            <mxRectangle width="30" height="30" as="alternateBounds" />
          </mxGeometry>
        </mxCell>
        <mxCell id="-Ajo2ekiVwMD1QqtX69g-654" value="`plan_end_time`" style="shape=partialRectangle;overflow=hidden;connectable=0;fillColor=none;align=left;strokeColor=#457B9D;top=0;left=0;bottom=0;right=0;spacingLeft=6;rounded=1;labelBackgroundColor=none;fontColor=#1D3557;" vertex="1" parent="-Ajo2ekiVwMD1QqtX69g-652">
          <mxGeometry x="30" width="150" height="30" as="geometry">
            <mxRectangle width="150" height="30" as="alternateBounds" />
          </mxGeometry>
        </mxCell>
        <mxCell id="-Ajo2ekiVwMD1QqtX69g-655" value="" style="shape=tableRow;horizontal=0;startSize=0;swimlaneHead=0;swimlaneBody=0;fillColor=none;collapsible=0;dropTarget=0;points=[[0,0.5],[1,0.5]];portConstraint=eastwest;strokeColor=#457B9D;top=0;left=0;right=0;bottom=0;rounded=1;labelBackgroundColor=none;fontColor=#1D3557;" vertex="1" parent="-Ajo2ekiVwMD1QqtX69g-633">
          <mxGeometry y="240" width="180" height="30" as="geometry" />
        </mxCell>
        <mxCell id="-Ajo2ekiVwMD1QqtX69g-656" value="" style="shape=partialRectangle;overflow=hidden;connectable=0;fillColor=none;strokeColor=#457B9D;top=0;left=0;bottom=0;right=0;rounded=1;labelBackgroundColor=none;fontColor=#1D3557;" vertex="1" parent="-Ajo2ekiVwMD1QqtX69g-655">
          <mxGeometry width="30" height="30" as="geometry">
            <mxRectangle width="30" height="30" as="alternateBounds" />
          </mxGeometry>
        </mxCell>
        <mxCell id="-Ajo2ekiVwMD1QqtX69g-657" value="`create_date`" style="shape=partialRectangle;overflow=hidden;connectable=0;fillColor=none;align=left;strokeColor=#457B9D;top=0;left=0;bottom=0;right=0;spacingLeft=6;rounded=1;labelBackgroundColor=none;fontColor=#1D3557;" vertex="1" parent="-Ajo2ekiVwMD1QqtX69g-655">
          <mxGeometry x="30" width="150" height="30" as="geometry">
            <mxRectangle width="150" height="30" as="alternateBounds" />
          </mxGeometry>
        </mxCell>
        <mxCell id="-Ajo2ekiVwMD1QqtX69g-658" value="" style="shape=tableRow;horizontal=0;startSize=0;swimlaneHead=0;swimlaneBody=0;fillColor=none;collapsible=0;dropTarget=0;points=[[0,0.5],[1,0.5]];portConstraint=eastwest;strokeColor=#457B9D;top=0;left=0;right=0;bottom=0;rounded=1;labelBackgroundColor=none;fontColor=#1D3557;" vertex="1" parent="-Ajo2ekiVwMD1QqtX69g-633">
          <mxGeometry y="270" width="180" height="30" as="geometry" />
        </mxCell>
        <mxCell id="-Ajo2ekiVwMD1QqtX69g-659" value="" style="shape=partialRectangle;overflow=hidden;connectable=0;fillColor=none;strokeColor=#457B9D;top=0;left=0;bottom=0;right=0;rounded=1;labelBackgroundColor=none;fontColor=#1D3557;" vertex="1" parent="-Ajo2ekiVwMD1QqtX69g-658">
          <mxGeometry width="30" height="30" as="geometry">
            <mxRectangle width="30" height="30" as="alternateBounds" />
          </mxGeometry>
        </mxCell>
        <mxCell id="-Ajo2ekiVwMD1QqtX69g-660" value="`update_date`" style="shape=partialRectangle;overflow=hidden;connectable=0;fillColor=none;align=left;strokeColor=#457B9D;top=0;left=0;bottom=0;right=0;spacingLeft=6;rounded=1;labelBackgroundColor=none;fontColor=#1D3557;" vertex="1" parent="-Ajo2ekiVwMD1QqtX69g-658">
          <mxGeometry x="30" width="150" height="30" as="geometry">
            <mxRectangle width="150" height="30" as="alternateBounds" />
          </mxGeometry>
        </mxCell>
        <mxCell id="-Ajo2ekiVwMD1QqtX69g-661" value="" style="shape=tableRow;horizontal=0;startSize=0;swimlaneHead=0;swimlaneBody=0;fillColor=none;collapsible=0;dropTarget=0;points=[[0,0.5],[1,0.5]];portConstraint=eastwest;strokeColor=#457B9D;top=0;left=0;right=0;bottom=0;rounded=1;labelBackgroundColor=none;fontColor=#1D3557;" vertex="1" parent="-Ajo2ekiVwMD1QqtX69g-633">
          <mxGeometry y="300" width="180" height="30" as="geometry" />
        </mxCell>
        <mxCell id="-Ajo2ekiVwMD1QqtX69g-662" value="" style="shape=partialRectangle;overflow=hidden;connectable=0;fillColor=none;strokeColor=#457B9D;top=0;left=0;bottom=0;right=0;rounded=1;labelBackgroundColor=none;fontColor=#1D3557;" vertex="1" parent="-Ajo2ekiVwMD1QqtX69g-661">
          <mxGeometry width="30" height="30" as="geometry">
            <mxRectangle width="30" height="30" as="alternateBounds" />
          </mxGeometry>
        </mxCell>
        <mxCell id="-Ajo2ekiVwMD1QqtX69g-663" value="`create_by`" style="shape=partialRectangle;overflow=hidden;connectable=0;fillColor=none;align=left;strokeColor=#457B9D;top=0;left=0;bottom=0;right=0;spacingLeft=6;rounded=1;labelBackgroundColor=none;fontColor=#1D3557;" vertex="1" parent="-Ajo2ekiVwMD1QqtX69g-661">
          <mxGeometry x="30" width="150" height="30" as="geometry">
            <mxRectangle width="150" height="30" as="alternateBounds" />
          </mxGeometry>
        </mxCell>
        <mxCell id="-Ajo2ekiVwMD1QqtX69g-664" value="" style="shape=tableRow;horizontal=0;startSize=0;swimlaneHead=0;swimlaneBody=0;fillColor=none;collapsible=0;dropTarget=0;points=[[0,0.5],[1,0.5]];portConstraint=eastwest;strokeColor=#457B9D;top=0;left=0;right=0;bottom=0;rounded=1;labelBackgroundColor=none;fontColor=#1D3557;" vertex="1" parent="-Ajo2ekiVwMD1QqtX69g-633">
          <mxGeometry y="330" width="180" height="30" as="geometry" />
        </mxCell>
        <mxCell id="-Ajo2ekiVwMD1QqtX69g-665" value="" style="shape=partialRectangle;overflow=hidden;connectable=0;fillColor=none;strokeColor=#457B9D;top=0;left=0;bottom=0;right=0;rounded=1;labelBackgroundColor=none;fontColor=#1D3557;" vertex="1" parent="-Ajo2ekiVwMD1QqtX69g-664">
          <mxGeometry width="30" height="30" as="geometry">
            <mxRectangle width="30" height="30" as="alternateBounds" />
          </mxGeometry>
        </mxCell>
        <mxCell id="-Ajo2ekiVwMD1QqtX69g-666" value="`update_by`" style="shape=partialRectangle;overflow=hidden;connectable=0;fillColor=none;align=left;strokeColor=#457B9D;top=0;left=0;bottom=0;right=0;spacingLeft=6;rounded=1;labelBackgroundColor=none;fontColor=#1D3557;" vertex="1" parent="-Ajo2ekiVwMD1QqtX69g-664">
          <mxGeometry x="30" width="150" height="30" as="geometry">
            <mxRectangle width="150" height="30" as="alternateBounds" />
          </mxGeometry>
        </mxCell>
        <mxCell id="-Ajo2ekiVwMD1QqtX69g-667" value="" style="shape=tableRow;horizontal=0;startSize=0;swimlaneHead=0;swimlaneBody=0;fillColor=none;collapsible=0;dropTarget=0;points=[[0,0.5],[1,0.5]];portConstraint=eastwest;strokeColor=#457B9D;top=0;left=0;right=0;bottom=0;rounded=1;labelBackgroundColor=none;fontColor=#1D3557;" vertex="1" parent="-Ajo2ekiVwMD1QqtX69g-633">
          <mxGeometry y="360" width="180" height="30" as="geometry" />
        </mxCell>
        <mxCell id="-Ajo2ekiVwMD1QqtX69g-668" value="" style="shape=partialRectangle;overflow=hidden;connectable=0;fillColor=none;strokeColor=#457B9D;top=0;left=0;bottom=0;right=0;rounded=1;labelBackgroundColor=none;fontColor=#1D3557;" vertex="1" parent="-Ajo2ekiVwMD1QqtX69g-667">
          <mxGeometry width="30" height="30" as="geometry">
            <mxRectangle width="30" height="30" as="alternateBounds" />
          </mxGeometry>
        </mxCell>
        <mxCell id="-Ajo2ekiVwMD1QqtX69g-669" value="`delete_flag`" style="shape=partialRectangle;overflow=hidden;connectable=0;fillColor=none;align=left;strokeColor=#457B9D;top=0;left=0;bottom=0;right=0;spacingLeft=6;rounded=1;labelBackgroundColor=none;fontColor=#1D3557;" vertex="1" parent="-Ajo2ekiVwMD1QqtX69g-667">
          <mxGeometry x="30" width="150" height="30" as="geometry">
            <mxRectangle width="150" height="30" as="alternateBounds" />
          </mxGeometry>
        </mxCell>
        <mxCell id="-Ajo2ekiVwMD1QqtX69g-670" value="关注日程表&#xa;`schedule_detail_follow`" style="shape=table;startSize=30;container=1;collapsible=1;childLayout=tableLayout;fixedRows=1;rowLines=0;fontStyle=1;align=center;resizeLast=1;rounded=1;labelBackgroundColor=none;fillColor=#A8DADC;strokeColor=#457B9D;fontColor=#1D3557;" vertex="1" parent="1">
          <mxGeometry x="-680" y="-170" width="170" height="290" as="geometry" />
        </mxCell>
        <mxCell id="-Ajo2ekiVwMD1QqtX69g-671" value="" style="shape=tableRow;horizontal=0;startSize=0;swimlaneHead=0;swimlaneBody=0;fillColor=none;collapsible=0;dropTarget=0;points=[[0,0.5],[1,0.5]];portConstraint=eastwest;strokeColor=#457B9D;top=0;left=0;right=0;bottom=1;rounded=1;labelBackgroundColor=none;fontColor=#1D3557;" vertex="1" parent="-Ajo2ekiVwMD1QqtX69g-670">
          <mxGeometry y="30" width="170" height="30" as="geometry" />
        </mxCell>
        <mxCell id="-Ajo2ekiVwMD1QqtX69g-672" value="PK" style="shape=partialRectangle;overflow=hidden;connectable=0;fillColor=none;strokeColor=#457B9D;top=0;left=0;bottom=0;right=0;fontStyle=1;rounded=1;labelBackgroundColor=none;fontColor=#1D3557;" vertex="1" parent="-Ajo2ekiVwMD1QqtX69g-671">
          <mxGeometry width="30" height="30" as="geometry">
            <mxRectangle width="30" height="30" as="alternateBounds" />
          </mxGeometry>
        </mxCell>
        <mxCell id="-Ajo2ekiVwMD1QqtX69g-673" value="`id`" style="shape=partialRectangle;overflow=hidden;connectable=0;fillColor=none;align=left;strokeColor=#457B9D;top=0;left=0;bottom=0;right=0;spacingLeft=6;fontStyle=5;rounded=1;labelBackgroundColor=none;fontColor=#1D3557;" vertex="1" parent="-Ajo2ekiVwMD1QqtX69g-671">
          <mxGeometry x="30" width="140" height="30" as="geometry">
            <mxRectangle width="140" height="30" as="alternateBounds" />
          </mxGeometry>
        </mxCell>
        <mxCell id="-Ajo2ekiVwMD1QqtX69g-674" value="" style="shape=tableRow;horizontal=0;startSize=0;swimlaneHead=0;swimlaneBody=0;fillColor=none;collapsible=0;dropTarget=0;points=[[0,0.5],[1,0.5]];portConstraint=eastwest;strokeColor=#457B9D;top=0;left=0;right=0;bottom=0;rounded=1;labelBackgroundColor=none;fontColor=#1D3557;" vertex="1" parent="-Ajo2ekiVwMD1QqtX69g-670">
          <mxGeometry y="60" width="170" height="30" as="geometry" />
        </mxCell>
        <mxCell id="-Ajo2ekiVwMD1QqtX69g-675" value="" style="shape=partialRectangle;overflow=hidden;connectable=0;fillColor=none;strokeColor=#457B9D;top=0;left=0;bottom=0;right=0;rounded=1;labelBackgroundColor=none;fontColor=#1D3557;" vertex="1" parent="-Ajo2ekiVwMD1QqtX69g-674">
          <mxGeometry width="30" height="30" as="geometry">
            <mxRectangle width="30" height="30" as="alternateBounds" />
          </mxGeometry>
        </mxCell>
        <mxCell id="-Ajo2ekiVwMD1QqtX69g-676" value="`schedule_panel_id`" style="shape=partialRectangle;overflow=hidden;connectable=0;fillColor=none;align=left;strokeColor=#457B9D;top=0;left=0;bottom=0;right=0;spacingLeft=6;rounded=1;labelBackgroundColor=none;fontColor=#1D3557;" vertex="1" parent="-Ajo2ekiVwMD1QqtX69g-674">
          <mxGeometry x="30" width="140" height="30" as="geometry">
            <mxRectangle width="140" height="30" as="alternateBounds" />
          </mxGeometry>
        </mxCell>
        <mxCell id="-Ajo2ekiVwMD1QqtX69g-677" value="" style="shape=tableRow;horizontal=0;startSize=0;swimlaneHead=0;swimlaneBody=0;fillColor=none;collapsible=0;dropTarget=0;points=[[0,0.5],[1,0.5]];portConstraint=eastwest;strokeColor=#457B9D;top=0;left=0;right=0;bottom=0;rounded=1;labelBackgroundColor=none;fontColor=#1D3557;" vertex="1" parent="-Ajo2ekiVwMD1QqtX69g-670">
          <mxGeometry y="90" width="170" height="30" as="geometry" />
        </mxCell>
        <mxCell id="-Ajo2ekiVwMD1QqtX69g-678" value="" style="shape=partialRectangle;overflow=hidden;connectable=0;fillColor=none;strokeColor=#457B9D;top=0;left=0;bottom=0;right=0;rounded=1;labelBackgroundColor=none;fontColor=#1D3557;" vertex="1" parent="-Ajo2ekiVwMD1QqtX69g-677">
          <mxGeometry width="30" height="30" as="geometry">
            <mxRectangle width="30" height="30" as="alternateBounds" />
          </mxGeometry>
        </mxCell>
        <mxCell id="-Ajo2ekiVwMD1QqtX69g-679" value="`schedule_detail_id`" style="shape=partialRectangle;overflow=hidden;connectable=0;fillColor=none;align=left;strokeColor=#457B9D;top=0;left=0;bottom=0;right=0;spacingLeft=6;rounded=1;labelBackgroundColor=none;fontColor=#1D3557;" vertex="1" parent="-Ajo2ekiVwMD1QqtX69g-677">
          <mxGeometry x="30" width="140" height="30" as="geometry">
            <mxRectangle width="140" height="30" as="alternateBounds" />
          </mxGeometry>
        </mxCell>
        <mxCell id="-Ajo2ekiVwMD1QqtX69g-680" value="" style="shape=tableRow;horizontal=0;startSize=0;swimlaneHead=0;swimlaneBody=0;fillColor=none;collapsible=0;dropTarget=0;points=[[0,0.5],[1,0.5]];portConstraint=eastwest;strokeColor=#457B9D;top=0;left=0;right=0;bottom=0;rounded=1;labelBackgroundColor=none;fontColor=#1D3557;" vertex="1" parent="-Ajo2ekiVwMD1QqtX69g-670">
          <mxGeometry y="120" width="170" height="30" as="geometry" />
        </mxCell>
        <mxCell id="-Ajo2ekiVwMD1QqtX69g-681" value="" style="shape=partialRectangle;overflow=hidden;connectable=0;fillColor=none;strokeColor=#457B9D;top=0;left=0;bottom=0;right=0;rounded=1;labelBackgroundColor=none;fontColor=#1D3557;" vertex="1" parent="-Ajo2ekiVwMD1QqtX69g-680">
          <mxGeometry width="30" height="30" as="geometry">
            <mxRectangle width="30" height="30" as="alternateBounds" />
          </mxGeometry>
        </mxCell>
        <mxCell id="-Ajo2ekiVwMD1QqtX69g-682" value="`username`" style="shape=partialRectangle;overflow=hidden;connectable=0;fillColor=none;align=left;strokeColor=#457B9D;top=0;left=0;bottom=0;right=0;spacingLeft=6;rounded=1;labelBackgroundColor=none;fontColor=#1D3557;" vertex="1" parent="-Ajo2ekiVwMD1QqtX69g-680">
          <mxGeometry x="30" width="140" height="30" as="geometry">
            <mxRectangle width="140" height="30" as="alternateBounds" />
          </mxGeometry>
        </mxCell>
        <mxCell id="-Ajo2ekiVwMD1QqtX69g-683" value="" style="shape=tableRow;horizontal=0;startSize=0;swimlaneHead=0;swimlaneBody=0;fillColor=none;collapsible=0;dropTarget=0;points=[[0,0.5],[1,0.5]];portConstraint=eastwest;strokeColor=#457B9D;top=0;left=0;right=0;bottom=0;rounded=1;labelBackgroundColor=none;fontColor=#1D3557;" vertex="1" parent="-Ajo2ekiVwMD1QqtX69g-670">
          <mxGeometry y="150" width="170" height="30" as="geometry" />
        </mxCell>
        <mxCell id="-Ajo2ekiVwMD1QqtX69g-684" value="" style="shape=partialRectangle;overflow=hidden;connectable=0;fillColor=none;strokeColor=#457B9D;top=0;left=0;bottom=0;right=0;rounded=1;labelBackgroundColor=none;fontColor=#1D3557;" vertex="1" parent="-Ajo2ekiVwMD1QqtX69g-683">
          <mxGeometry width="30" height="30" as="geometry">
            <mxRectangle width="30" height="30" as="alternateBounds" />
          </mxGeometry>
        </mxCell>
        <mxCell id="-Ajo2ekiVwMD1QqtX69g-685" value="`create_date`" style="shape=partialRectangle;overflow=hidden;connectable=0;fillColor=none;align=left;strokeColor=#457B9D;top=0;left=0;bottom=0;right=0;spacingLeft=6;rounded=1;labelBackgroundColor=none;fontColor=#1D3557;" vertex="1" parent="-Ajo2ekiVwMD1QqtX69g-683">
          <mxGeometry x="30" width="140" height="30" as="geometry">
            <mxRectangle width="140" height="30" as="alternateBounds" />
          </mxGeometry>
        </mxCell>
        <mxCell id="-Ajo2ekiVwMD1QqtX69g-686" value="" style="shape=tableRow;horizontal=0;startSize=0;swimlaneHead=0;swimlaneBody=0;fillColor=none;collapsible=0;dropTarget=0;points=[[0,0.5],[1,0.5]];portConstraint=eastwest;strokeColor=#457B9D;top=0;left=0;right=0;bottom=0;rounded=1;labelBackgroundColor=none;fontColor=#1D3557;" vertex="1" parent="-Ajo2ekiVwMD1QqtX69g-670">
          <mxGeometry y="180" width="170" height="30" as="geometry" />
        </mxCell>
        <mxCell id="-Ajo2ekiVwMD1QqtX69g-687" value="" style="shape=partialRectangle;overflow=hidden;connectable=0;fillColor=none;strokeColor=#457B9D;top=0;left=0;bottom=0;right=0;rounded=1;labelBackgroundColor=none;fontColor=#1D3557;" vertex="1" parent="-Ajo2ekiVwMD1QqtX69g-686">
          <mxGeometry width="30" height="30" as="geometry">
            <mxRectangle width="30" height="30" as="alternateBounds" />
          </mxGeometry>
        </mxCell>
        <mxCell id="-Ajo2ekiVwMD1QqtX69g-688" value="`update_date`" style="shape=partialRectangle;overflow=hidden;connectable=0;fillColor=none;align=left;strokeColor=#457B9D;top=0;left=0;bottom=0;right=0;spacingLeft=6;rounded=1;labelBackgroundColor=none;fontColor=#1D3557;" vertex="1" parent="-Ajo2ekiVwMD1QqtX69g-686">
          <mxGeometry x="30" width="140" height="30" as="geometry">
            <mxRectangle width="140" height="30" as="alternateBounds" />
          </mxGeometry>
        </mxCell>
        <mxCell id="-Ajo2ekiVwMD1QqtX69g-689" value="" style="shape=tableRow;horizontal=0;startSize=0;swimlaneHead=0;swimlaneBody=0;fillColor=none;collapsible=0;dropTarget=0;points=[[0,0.5],[1,0.5]];portConstraint=eastwest;strokeColor=#457B9D;top=0;left=0;right=0;bottom=0;rounded=1;labelBackgroundColor=none;fontColor=#1D3557;" vertex="1" parent="-Ajo2ekiVwMD1QqtX69g-670">
          <mxGeometry y="210" width="170" height="30" as="geometry" />
        </mxCell>
        <mxCell id="-Ajo2ekiVwMD1QqtX69g-690" value="" style="shape=partialRectangle;overflow=hidden;connectable=0;fillColor=none;strokeColor=#457B9D;top=0;left=0;bottom=0;right=0;rounded=1;labelBackgroundColor=none;fontColor=#1D3557;" vertex="1" parent="-Ajo2ekiVwMD1QqtX69g-689">
          <mxGeometry width="30" height="30" as="geometry">
            <mxRectangle width="30" height="30" as="alternateBounds" />
          </mxGeometry>
        </mxCell>
        <mxCell id="-Ajo2ekiVwMD1QqtX69g-691" value="`create_by`" style="shape=partialRectangle;overflow=hidden;connectable=0;fillColor=none;align=left;strokeColor=#457B9D;top=0;left=0;bottom=0;right=0;spacingLeft=6;rounded=1;labelBackgroundColor=none;fontColor=#1D3557;" vertex="1" parent="-Ajo2ekiVwMD1QqtX69g-689">
          <mxGeometry x="30" width="140" height="30" as="geometry">
            <mxRectangle width="140" height="30" as="alternateBounds" />
          </mxGeometry>
        </mxCell>
        <mxCell id="-Ajo2ekiVwMD1QqtX69g-692" value="" style="shape=tableRow;horizontal=0;startSize=0;swimlaneHead=0;swimlaneBody=0;fillColor=none;collapsible=0;dropTarget=0;points=[[0,0.5],[1,0.5]];portConstraint=eastwest;strokeColor=#457B9D;top=0;left=0;right=0;bottom=0;rounded=1;labelBackgroundColor=none;fontColor=#1D3557;" vertex="1" parent="-Ajo2ekiVwMD1QqtX69g-670">
          <mxGeometry y="240" width="170" height="30" as="geometry" />
        </mxCell>
        <mxCell id="-Ajo2ekiVwMD1QqtX69g-693" value="" style="shape=partialRectangle;overflow=hidden;connectable=0;fillColor=none;strokeColor=#457B9D;top=0;left=0;bottom=0;right=0;rounded=1;labelBackgroundColor=none;fontColor=#1D3557;" vertex="1" parent="-Ajo2ekiVwMD1QqtX69g-692">
          <mxGeometry width="30" height="30" as="geometry">
            <mxRectangle width="30" height="30" as="alternateBounds" />
          </mxGeometry>
        </mxCell>
        <mxCell id="-Ajo2ekiVwMD1QqtX69g-694" value="`update_by`" style="shape=partialRectangle;overflow=hidden;connectable=0;fillColor=none;align=left;strokeColor=#457B9D;top=0;left=0;bottom=0;right=0;spacingLeft=6;rounded=1;labelBackgroundColor=none;fontColor=#1D3557;" vertex="1" parent="-Ajo2ekiVwMD1QqtX69g-692">
          <mxGeometry x="30" width="140" height="30" as="geometry">
            <mxRectangle width="140" height="30" as="alternateBounds" />
          </mxGeometry>
        </mxCell>
        <mxCell id="-Ajo2ekiVwMD1QqtX69g-695" value="" style="shape=tableRow;horizontal=0;startSize=0;swimlaneHead=0;swimlaneBody=0;fillColor=none;collapsible=0;dropTarget=0;points=[[0,0.5],[1,0.5]];portConstraint=eastwest;strokeColor=#457B9D;top=0;left=0;right=0;bottom=0;rounded=1;labelBackgroundColor=none;fontColor=#1D3557;" vertex="1" parent="-Ajo2ekiVwMD1QqtX69g-670">
          <mxGeometry y="270" width="170" height="20" as="geometry" />
        </mxCell>
        <mxCell id="-Ajo2ekiVwMD1QqtX69g-696" value="" style="shape=partialRectangle;overflow=hidden;connectable=0;fillColor=none;strokeColor=#457B9D;top=0;left=0;bottom=0;right=0;rounded=1;labelBackgroundColor=none;fontColor=#1D3557;" vertex="1" parent="-Ajo2ekiVwMD1QqtX69g-695">
          <mxGeometry width="30" height="20" as="geometry">
            <mxRectangle width="30" height="20" as="alternateBounds" />
          </mxGeometry>
        </mxCell>
        <mxCell id="-Ajo2ekiVwMD1QqtX69g-697" value="`delete_flag`" style="shape=partialRectangle;overflow=hidden;connectable=0;fillColor=none;align=left;strokeColor=#457B9D;top=0;left=0;bottom=0;right=0;spacingLeft=6;rounded=1;labelBackgroundColor=none;fontColor=#1D3557;" vertex="1" parent="-Ajo2ekiVwMD1QqtX69g-695">
          <mxGeometry x="30" width="140" height="20" as="geometry">
            <mxRectangle width="140" height="20" as="alternateBounds" />
          </mxGeometry>
        </mxCell>
        <mxCell id="-Ajo2ekiVwMD1QqtX69g-698" value="日程看板&#xa;`schedule_panel`" style="shape=table;startSize=30;container=1;collapsible=1;childLayout=tableLayout;fixedRows=1;rowLines=0;fontStyle=1;align=center;resizeLast=1;rounded=1;labelBackgroundColor=none;fillColor=#A8DADC;strokeColor=#457B9D;fontColor=#1D3557;" vertex="1" parent="1">
          <mxGeometry x="-920" y="160" width="180" height="240" as="geometry" />
        </mxCell>
        <mxCell id="-Ajo2ekiVwMD1QqtX69g-699" value="" style="shape=tableRow;horizontal=0;startSize=0;swimlaneHead=0;swimlaneBody=0;fillColor=none;collapsible=0;dropTarget=0;points=[[0,0.5],[1,0.5]];portConstraint=eastwest;strokeColor=#457B9D;top=0;left=0;right=0;bottom=1;rounded=1;labelBackgroundColor=none;fontColor=#1D3557;" vertex="1" parent="-Ajo2ekiVwMD1QqtX69g-698">
          <mxGeometry y="30" width="180" height="30" as="geometry" />
        </mxCell>
        <mxCell id="-Ajo2ekiVwMD1QqtX69g-700" value="PK" style="shape=partialRectangle;overflow=hidden;connectable=0;fillColor=none;strokeColor=#457B9D;top=0;left=0;bottom=0;right=0;fontStyle=1;rounded=1;labelBackgroundColor=none;fontColor=#1D3557;" vertex="1" parent="-Ajo2ekiVwMD1QqtX69g-699">
          <mxGeometry width="30" height="30" as="geometry">
            <mxRectangle width="30" height="30" as="alternateBounds" />
          </mxGeometry>
        </mxCell>
        <mxCell id="-Ajo2ekiVwMD1QqtX69g-701" value="`id`" style="shape=partialRectangle;overflow=hidden;connectable=0;fillColor=none;align=left;strokeColor=#457B9D;top=0;left=0;bottom=0;right=0;spacingLeft=6;fontStyle=5;rounded=1;labelBackgroundColor=none;fontColor=#1D3557;" vertex="1" parent="-Ajo2ekiVwMD1QqtX69g-699">
          <mxGeometry x="30" width="150" height="30" as="geometry">
            <mxRectangle width="150" height="30" as="alternateBounds" />
          </mxGeometry>
        </mxCell>
        <mxCell id="-Ajo2ekiVwMD1QqtX69g-702" value="" style="shape=tableRow;horizontal=0;startSize=0;swimlaneHead=0;swimlaneBody=0;fillColor=none;collapsible=0;dropTarget=0;points=[[0,0.5],[1,0.5]];portConstraint=eastwest;strokeColor=#457B9D;top=0;left=0;right=0;bottom=0;rounded=1;labelBackgroundColor=none;fontColor=#1D3557;" vertex="1" parent="-Ajo2ekiVwMD1QqtX69g-698">
          <mxGeometry y="60" width="180" height="30" as="geometry" />
        </mxCell>
        <mxCell id="-Ajo2ekiVwMD1QqtX69g-703" value="" style="shape=partialRectangle;overflow=hidden;connectable=0;fillColor=none;strokeColor=#457B9D;top=0;left=0;bottom=0;right=0;rounded=1;labelBackgroundColor=none;fontColor=#1D3557;" vertex="1" parent="-Ajo2ekiVwMD1QqtX69g-702">
          <mxGeometry width="30" height="30" as="geometry">
            <mxRectangle width="30" height="30" as="alternateBounds" />
          </mxGeometry>
        </mxCell>
        <mxCell id="-Ajo2ekiVwMD1QqtX69g-704" value="`panel_name`" style="shape=partialRectangle;overflow=hidden;connectable=0;fillColor=none;align=left;strokeColor=#457B9D;top=0;left=0;bottom=0;right=0;spacingLeft=6;rounded=1;labelBackgroundColor=none;fontColor=#1D3557;" vertex="1" parent="-Ajo2ekiVwMD1QqtX69g-702">
          <mxGeometry x="30" width="150" height="30" as="geometry">
            <mxRectangle width="150" height="30" as="alternateBounds" />
          </mxGeometry>
        </mxCell>
        <mxCell id="-Ajo2ekiVwMD1QqtX69g-705" value="" style="shape=tableRow;horizontal=0;startSize=0;swimlaneHead=0;swimlaneBody=0;fillColor=none;collapsible=0;dropTarget=0;points=[[0,0.5],[1,0.5]];portConstraint=eastwest;strokeColor=#457B9D;top=0;left=0;right=0;bottom=0;rounded=1;labelBackgroundColor=none;fontColor=#1D3557;" vertex="1" parent="-Ajo2ekiVwMD1QqtX69g-698">
          <mxGeometry y="90" width="180" height="30" as="geometry" />
        </mxCell>
        <mxCell id="-Ajo2ekiVwMD1QqtX69g-706" value="" style="shape=partialRectangle;overflow=hidden;connectable=0;fillColor=none;strokeColor=#457B9D;top=0;left=0;bottom=0;right=0;rounded=1;labelBackgroundColor=none;fontColor=#1D3557;" vertex="1" parent="-Ajo2ekiVwMD1QqtX69g-705">
          <mxGeometry width="30" height="30" as="geometry">
            <mxRectangle width="30" height="30" as="alternateBounds" />
          </mxGeometry>
        </mxCell>
        <mxCell id="-Ajo2ekiVwMD1QqtX69g-707" value="`create_date`" style="shape=partialRectangle;overflow=hidden;connectable=0;fillColor=none;align=left;strokeColor=#457B9D;top=0;left=0;bottom=0;right=0;spacingLeft=6;rounded=1;labelBackgroundColor=none;fontColor=#1D3557;" vertex="1" parent="-Ajo2ekiVwMD1QqtX69g-705">
          <mxGeometry x="30" width="150" height="30" as="geometry">
            <mxRectangle width="150" height="30" as="alternateBounds" />
          </mxGeometry>
        </mxCell>
        <mxCell id="-Ajo2ekiVwMD1QqtX69g-708" value="" style="shape=tableRow;horizontal=0;startSize=0;swimlaneHead=0;swimlaneBody=0;fillColor=none;collapsible=0;dropTarget=0;points=[[0,0.5],[1,0.5]];portConstraint=eastwest;strokeColor=#457B9D;top=0;left=0;right=0;bottom=0;rounded=1;labelBackgroundColor=none;fontColor=#1D3557;" vertex="1" parent="-Ajo2ekiVwMD1QqtX69g-698">
          <mxGeometry y="120" width="180" height="30" as="geometry" />
        </mxCell>
        <mxCell id="-Ajo2ekiVwMD1QqtX69g-709" value="" style="shape=partialRectangle;overflow=hidden;connectable=0;fillColor=none;strokeColor=#457B9D;top=0;left=0;bottom=0;right=0;rounded=1;labelBackgroundColor=none;fontColor=#1D3557;" vertex="1" parent="-Ajo2ekiVwMD1QqtX69g-708">
          <mxGeometry width="30" height="30" as="geometry">
            <mxRectangle width="30" height="30" as="alternateBounds" />
          </mxGeometry>
        </mxCell>
        <mxCell id="-Ajo2ekiVwMD1QqtX69g-710" value="`update_date`" style="shape=partialRectangle;overflow=hidden;connectable=0;fillColor=none;align=left;strokeColor=#457B9D;top=0;left=0;bottom=0;right=0;spacingLeft=6;rounded=1;labelBackgroundColor=none;fontColor=#1D3557;" vertex="1" parent="-Ajo2ekiVwMD1QqtX69g-708">
          <mxGeometry x="30" width="150" height="30" as="geometry">
            <mxRectangle width="150" height="30" as="alternateBounds" />
          </mxGeometry>
        </mxCell>
        <mxCell id="-Ajo2ekiVwMD1QqtX69g-711" value="" style="shape=tableRow;horizontal=0;startSize=0;swimlaneHead=0;swimlaneBody=0;fillColor=none;collapsible=0;dropTarget=0;points=[[0,0.5],[1,0.5]];portConstraint=eastwest;strokeColor=#457B9D;top=0;left=0;right=0;bottom=0;rounded=1;labelBackgroundColor=none;fontColor=#1D3557;" vertex="1" parent="-Ajo2ekiVwMD1QqtX69g-698">
          <mxGeometry y="150" width="180" height="30" as="geometry" />
        </mxCell>
        <mxCell id="-Ajo2ekiVwMD1QqtX69g-712" value="" style="shape=partialRectangle;overflow=hidden;connectable=0;fillColor=none;strokeColor=#457B9D;top=0;left=0;bottom=0;right=0;rounded=1;labelBackgroundColor=none;fontColor=#1D3557;" vertex="1" parent="-Ajo2ekiVwMD1QqtX69g-711">
          <mxGeometry width="30" height="30" as="geometry">
            <mxRectangle width="30" height="30" as="alternateBounds" />
          </mxGeometry>
        </mxCell>
        <mxCell id="-Ajo2ekiVwMD1QqtX69g-713" value="`create_by`" style="shape=partialRectangle;overflow=hidden;connectable=0;fillColor=none;align=left;strokeColor=#457B9D;top=0;left=0;bottom=0;right=0;spacingLeft=6;rounded=1;labelBackgroundColor=none;fontColor=#1D3557;" vertex="1" parent="-Ajo2ekiVwMD1QqtX69g-711">
          <mxGeometry x="30" width="150" height="30" as="geometry">
            <mxRectangle width="150" height="30" as="alternateBounds" />
          </mxGeometry>
        </mxCell>
        <mxCell id="-Ajo2ekiVwMD1QqtX69g-714" value="" style="shape=tableRow;horizontal=0;startSize=0;swimlaneHead=0;swimlaneBody=0;fillColor=none;collapsible=0;dropTarget=0;points=[[0,0.5],[1,0.5]];portConstraint=eastwest;strokeColor=#457B9D;top=0;left=0;right=0;bottom=0;rounded=1;labelBackgroundColor=none;fontColor=#1D3557;" vertex="1" parent="-Ajo2ekiVwMD1QqtX69g-698">
          <mxGeometry y="180" width="180" height="30" as="geometry" />
        </mxCell>
        <mxCell id="-Ajo2ekiVwMD1QqtX69g-715" value="" style="shape=partialRectangle;overflow=hidden;connectable=0;fillColor=none;strokeColor=#457B9D;top=0;left=0;bottom=0;right=0;rounded=1;labelBackgroundColor=none;fontColor=#1D3557;" vertex="1" parent="-Ajo2ekiVwMD1QqtX69g-714">
          <mxGeometry width="30" height="30" as="geometry">
            <mxRectangle width="30" height="30" as="alternateBounds" />
          </mxGeometry>
        </mxCell>
        <mxCell id="-Ajo2ekiVwMD1QqtX69g-716" value="`update_by`" style="shape=partialRectangle;overflow=hidden;connectable=0;fillColor=none;align=left;strokeColor=#457B9D;top=0;left=0;bottom=0;right=0;spacingLeft=6;rounded=1;labelBackgroundColor=none;fontColor=#1D3557;" vertex="1" parent="-Ajo2ekiVwMD1QqtX69g-714">
          <mxGeometry x="30" width="150" height="30" as="geometry">
            <mxRectangle width="150" height="30" as="alternateBounds" />
          </mxGeometry>
        </mxCell>
        <mxCell id="-Ajo2ekiVwMD1QqtX69g-717" value="" style="shape=tableRow;horizontal=0;startSize=0;swimlaneHead=0;swimlaneBody=0;fillColor=none;collapsible=0;dropTarget=0;points=[[0,0.5],[1,0.5]];portConstraint=eastwest;strokeColor=#457B9D;top=0;left=0;right=0;bottom=0;rounded=1;labelBackgroundColor=none;fontColor=#1D3557;" vertex="1" parent="-Ajo2ekiVwMD1QqtX69g-698">
          <mxGeometry y="210" width="180" height="30" as="geometry" />
        </mxCell>
        <mxCell id="-Ajo2ekiVwMD1QqtX69g-718" value="" style="shape=partialRectangle;overflow=hidden;connectable=0;fillColor=none;strokeColor=#457B9D;top=0;left=0;bottom=0;right=0;rounded=1;labelBackgroundColor=none;fontColor=#1D3557;" vertex="1" parent="-Ajo2ekiVwMD1QqtX69g-717">
          <mxGeometry width="30" height="30" as="geometry">
            <mxRectangle width="30" height="30" as="alternateBounds" />
          </mxGeometry>
        </mxCell>
        <mxCell id="-Ajo2ekiVwMD1QqtX69g-719" value="`delete_flag`" style="shape=partialRectangle;overflow=hidden;connectable=0;fillColor=none;align=left;strokeColor=#457B9D;top=0;left=0;bottom=0;right=0;spacingLeft=6;rounded=1;labelBackgroundColor=none;fontColor=#1D3557;" vertex="1" parent="-Ajo2ekiVwMD1QqtX69g-717">
          <mxGeometry x="30" width="150" height="30" as="geometry">
            <mxRectangle width="150" height="30" as="alternateBounds" />
          </mxGeometry>
        </mxCell>
        <mxCell id="-Ajo2ekiVwMD1QqtX69g-720" value="用户日程看板关联表&#xa;`schedule_user_panel`" style="shape=table;startSize=30;container=1;collapsible=1;childLayout=tableLayout;fixedRows=1;rowLines=0;fontStyle=1;align=center;resizeLast=1;rounded=1;labelBackgroundColor=none;fillColor=#A8DADC;strokeColor=#457B9D;fontColor=#1D3557;" vertex="1" parent="1">
          <mxGeometry x="-920" y="480" width="180" height="330" as="geometry" />
        </mxCell>
        <mxCell id="-Ajo2ekiVwMD1QqtX69g-721" value="" style="shape=tableRow;horizontal=0;startSize=0;swimlaneHead=0;swimlaneBody=0;fillColor=none;collapsible=0;dropTarget=0;points=[[0,0.5],[1,0.5]];portConstraint=eastwest;strokeColor=#457B9D;top=0;left=0;right=0;bottom=1;rounded=1;labelBackgroundColor=none;fontColor=#1D3557;" vertex="1" parent="-Ajo2ekiVwMD1QqtX69g-720">
          <mxGeometry y="30" width="180" height="30" as="geometry" />
        </mxCell>
        <mxCell id="-Ajo2ekiVwMD1QqtX69g-722" value="PK" style="shape=partialRectangle;overflow=hidden;connectable=0;fillColor=none;strokeColor=#457B9D;top=0;left=0;bottom=0;right=0;fontStyle=1;rounded=1;labelBackgroundColor=none;fontColor=#1D3557;" vertex="1" parent="-Ajo2ekiVwMD1QqtX69g-721">
          <mxGeometry width="30" height="30" as="geometry">
            <mxRectangle width="30" height="30" as="alternateBounds" />
          </mxGeometry>
        </mxCell>
        <mxCell id="-Ajo2ekiVwMD1QqtX69g-723" value="`id`" style="shape=partialRectangle;overflow=hidden;connectable=0;fillColor=none;align=left;strokeColor=#457B9D;top=0;left=0;bottom=0;right=0;spacingLeft=6;fontStyle=5;rounded=1;labelBackgroundColor=none;fontColor=#1D3557;" vertex="1" parent="-Ajo2ekiVwMD1QqtX69g-721">
          <mxGeometry x="30" width="150" height="30" as="geometry">
            <mxRectangle width="150" height="30" as="alternateBounds" />
          </mxGeometry>
        </mxCell>
        <mxCell id="-Ajo2ekiVwMD1QqtX69g-724" value="" style="shape=tableRow;horizontal=0;startSize=0;swimlaneHead=0;swimlaneBody=0;fillColor=none;collapsible=0;dropTarget=0;points=[[0,0.5],[1,0.5]];portConstraint=eastwest;strokeColor=#457B9D;top=0;left=0;right=0;bottom=0;rounded=1;labelBackgroundColor=none;fontColor=#1D3557;" vertex="1" parent="-Ajo2ekiVwMD1QqtX69g-720">
          <mxGeometry y="60" width="180" height="30" as="geometry" />
        </mxCell>
        <mxCell id="-Ajo2ekiVwMD1QqtX69g-725" value="" style="shape=partialRectangle;overflow=hidden;connectable=0;fillColor=none;strokeColor=#457B9D;top=0;left=0;bottom=0;right=0;rounded=1;labelBackgroundColor=none;fontColor=#1D3557;" vertex="1" parent="-Ajo2ekiVwMD1QqtX69g-724">
          <mxGeometry width="30" height="30" as="geometry">
            <mxRectangle width="30" height="30" as="alternateBounds" />
          </mxGeometry>
        </mxCell>
        <mxCell id="-Ajo2ekiVwMD1QqtX69g-726" value="`schedule_panel_id`" style="shape=partialRectangle;overflow=hidden;connectable=0;fillColor=none;align=left;strokeColor=#457B9D;top=0;left=0;bottom=0;right=0;spacingLeft=6;rounded=1;labelBackgroundColor=none;fontColor=#1D3557;" vertex="1" parent="-Ajo2ekiVwMD1QqtX69g-724">
          <mxGeometry x="30" width="150" height="30" as="geometry">
            <mxRectangle width="150" height="30" as="alternateBounds" />
          </mxGeometry>
        </mxCell>
        <mxCell id="-Ajo2ekiVwMD1QqtX69g-727" value="" style="shape=tableRow;horizontal=0;startSize=0;swimlaneHead=0;swimlaneBody=0;fillColor=none;collapsible=0;dropTarget=0;points=[[0,0.5],[1,0.5]];portConstraint=eastwest;strokeColor=#457B9D;top=0;left=0;right=0;bottom=0;rounded=1;labelBackgroundColor=none;fontColor=#1D3557;" vertex="1" parent="-Ajo2ekiVwMD1QqtX69g-720">
          <mxGeometry y="90" width="180" height="30" as="geometry" />
        </mxCell>
        <mxCell id="-Ajo2ekiVwMD1QqtX69g-728" value="" style="shape=partialRectangle;overflow=hidden;connectable=0;fillColor=none;strokeColor=#457B9D;top=0;left=0;bottom=0;right=0;rounded=1;labelBackgroundColor=none;fontColor=#1D3557;" vertex="1" parent="-Ajo2ekiVwMD1QqtX69g-727">
          <mxGeometry width="30" height="30" as="geometry">
            <mxRectangle width="30" height="30" as="alternateBounds" />
          </mxGeometry>
        </mxCell>
        <mxCell id="-Ajo2ekiVwMD1QqtX69g-729" value="`company_id`" style="shape=partialRectangle;overflow=hidden;connectable=0;fillColor=none;align=left;strokeColor=#457B9D;top=0;left=0;bottom=0;right=0;spacingLeft=6;rounded=1;labelBackgroundColor=none;fontColor=#1D3557;" vertex="1" parent="-Ajo2ekiVwMD1QqtX69g-727">
          <mxGeometry x="30" width="150" height="30" as="geometry">
            <mxRectangle width="150" height="30" as="alternateBounds" />
          </mxGeometry>
        </mxCell>
        <mxCell id="-Ajo2ekiVwMD1QqtX69g-730" value="" style="shape=tableRow;horizontal=0;startSize=0;swimlaneHead=0;swimlaneBody=0;fillColor=none;collapsible=0;dropTarget=0;points=[[0,0.5],[1,0.5]];portConstraint=eastwest;strokeColor=#457B9D;top=0;left=0;right=0;bottom=0;rounded=1;labelBackgroundColor=none;fontColor=#1D3557;" vertex="1" parent="-Ajo2ekiVwMD1QqtX69g-720">
          <mxGeometry y="120" width="180" height="30" as="geometry" />
        </mxCell>
        <mxCell id="-Ajo2ekiVwMD1QqtX69g-731" value="" style="shape=partialRectangle;overflow=hidden;connectable=0;fillColor=none;strokeColor=#457B9D;top=0;left=0;bottom=0;right=0;rounded=1;labelBackgroundColor=none;fontColor=#1D3557;" vertex="1" parent="-Ajo2ekiVwMD1QqtX69g-730">
          <mxGeometry width="30" height="30" as="geometry">
            <mxRectangle width="30" height="30" as="alternateBounds" />
          </mxGeometry>
        </mxCell>
        <mxCell id="-Ajo2ekiVwMD1QqtX69g-732" value="`username`" style="shape=partialRectangle;overflow=hidden;connectable=0;fillColor=none;align=left;strokeColor=#457B9D;top=0;left=0;bottom=0;right=0;spacingLeft=6;rounded=1;labelBackgroundColor=none;fontColor=#1D3557;" vertex="1" parent="-Ajo2ekiVwMD1QqtX69g-730">
          <mxGeometry x="30" width="150" height="30" as="geometry">
            <mxRectangle width="150" height="30" as="alternateBounds" />
          </mxGeometry>
        </mxCell>
        <mxCell id="-Ajo2ekiVwMD1QqtX69g-733" value="" style="shape=tableRow;horizontal=0;startSize=0;swimlaneHead=0;swimlaneBody=0;fillColor=none;collapsible=0;dropTarget=0;points=[[0,0.5],[1,0.5]];portConstraint=eastwest;strokeColor=#457B9D;top=0;left=0;right=0;bottom=0;rounded=1;labelBackgroundColor=none;fontColor=#1D3557;" vertex="1" parent="-Ajo2ekiVwMD1QqtX69g-720">
          <mxGeometry y="150" width="180" height="30" as="geometry" />
        </mxCell>
        <mxCell id="-Ajo2ekiVwMD1QqtX69g-734" value="" style="shape=partialRectangle;overflow=hidden;connectable=0;fillColor=none;strokeColor=#457B9D;top=0;left=0;bottom=0;right=0;rounded=1;labelBackgroundColor=none;fontColor=#1D3557;" vertex="1" parent="-Ajo2ekiVwMD1QqtX69g-733">
          <mxGeometry width="30" height="30" as="geometry">
            <mxRectangle width="30" height="30" as="alternateBounds" />
          </mxGeometry>
        </mxCell>
        <mxCell id="-Ajo2ekiVwMD1QqtX69g-735" value="`view_time`" style="shape=partialRectangle;overflow=hidden;connectable=0;fillColor=none;align=left;strokeColor=#457B9D;top=0;left=0;bottom=0;right=0;spacingLeft=6;rounded=1;labelBackgroundColor=none;fontColor=#1D3557;" vertex="1" parent="-Ajo2ekiVwMD1QqtX69g-733">
          <mxGeometry x="30" width="150" height="30" as="geometry">
            <mxRectangle width="150" height="30" as="alternateBounds" />
          </mxGeometry>
        </mxCell>
        <mxCell id="-Ajo2ekiVwMD1QqtX69g-736" value="" style="shape=tableRow;horizontal=0;startSize=0;swimlaneHead=0;swimlaneBody=0;fillColor=none;collapsible=0;dropTarget=0;points=[[0,0.5],[1,0.5]];portConstraint=eastwest;strokeColor=#457B9D;top=0;left=0;right=0;bottom=0;rounded=1;labelBackgroundColor=none;fontColor=#1D3557;" vertex="1" parent="-Ajo2ekiVwMD1QqtX69g-720">
          <mxGeometry y="180" width="180" height="30" as="geometry" />
        </mxCell>
        <mxCell id="-Ajo2ekiVwMD1QqtX69g-737" value="" style="shape=partialRectangle;overflow=hidden;connectable=0;fillColor=none;strokeColor=#457B9D;top=0;left=0;bottom=0;right=0;rounded=1;labelBackgroundColor=none;fontColor=#1D3557;" vertex="1" parent="-Ajo2ekiVwMD1QqtX69g-736">
          <mxGeometry width="30" height="30" as="geometry">
            <mxRectangle width="30" height="30" as="alternateBounds" />
          </mxGeometry>
        </mxCell>
        <mxCell id="-Ajo2ekiVwMD1QqtX69g-738" value="`create_date`" style="shape=partialRectangle;overflow=hidden;connectable=0;fillColor=none;align=left;strokeColor=#457B9D;top=0;left=0;bottom=0;right=0;spacingLeft=6;rounded=1;labelBackgroundColor=none;fontColor=#1D3557;" vertex="1" parent="-Ajo2ekiVwMD1QqtX69g-736">
          <mxGeometry x="30" width="150" height="30" as="geometry">
            <mxRectangle width="150" height="30" as="alternateBounds" />
          </mxGeometry>
        </mxCell>
        <mxCell id="-Ajo2ekiVwMD1QqtX69g-739" value="" style="shape=tableRow;horizontal=0;startSize=0;swimlaneHead=0;swimlaneBody=0;fillColor=none;collapsible=0;dropTarget=0;points=[[0,0.5],[1,0.5]];portConstraint=eastwest;strokeColor=#457B9D;top=0;left=0;right=0;bottom=0;rounded=1;labelBackgroundColor=none;fontColor=#1D3557;" vertex="1" parent="-Ajo2ekiVwMD1QqtX69g-720">
          <mxGeometry y="210" width="180" height="30" as="geometry" />
        </mxCell>
        <mxCell id="-Ajo2ekiVwMD1QqtX69g-740" value="" style="shape=partialRectangle;overflow=hidden;connectable=0;fillColor=none;strokeColor=#457B9D;top=0;left=0;bottom=0;right=0;rounded=1;labelBackgroundColor=none;fontColor=#1D3557;" vertex="1" parent="-Ajo2ekiVwMD1QqtX69g-739">
          <mxGeometry width="30" height="30" as="geometry">
            <mxRectangle width="30" height="30" as="alternateBounds" />
          </mxGeometry>
        </mxCell>
        <mxCell id="-Ajo2ekiVwMD1QqtX69g-741" value="`update_date`" style="shape=partialRectangle;overflow=hidden;connectable=0;fillColor=none;align=left;strokeColor=#457B9D;top=0;left=0;bottom=0;right=0;spacingLeft=6;rounded=1;labelBackgroundColor=none;fontColor=#1D3557;" vertex="1" parent="-Ajo2ekiVwMD1QqtX69g-739">
          <mxGeometry x="30" width="150" height="30" as="geometry">
            <mxRectangle width="150" height="30" as="alternateBounds" />
          </mxGeometry>
        </mxCell>
        <mxCell id="-Ajo2ekiVwMD1QqtX69g-742" value="" style="shape=tableRow;horizontal=0;startSize=0;swimlaneHead=0;swimlaneBody=0;fillColor=none;collapsible=0;dropTarget=0;points=[[0,0.5],[1,0.5]];portConstraint=eastwest;strokeColor=#457B9D;top=0;left=0;right=0;bottom=0;rounded=1;labelBackgroundColor=none;fontColor=#1D3557;" vertex="1" parent="-Ajo2ekiVwMD1QqtX69g-720">
          <mxGeometry y="240" width="180" height="30" as="geometry" />
        </mxCell>
        <mxCell id="-Ajo2ekiVwMD1QqtX69g-743" value="" style="shape=partialRectangle;overflow=hidden;connectable=0;fillColor=none;strokeColor=#457B9D;top=0;left=0;bottom=0;right=0;rounded=1;labelBackgroundColor=none;fontColor=#1D3557;" vertex="1" parent="-Ajo2ekiVwMD1QqtX69g-742">
          <mxGeometry width="30" height="30" as="geometry">
            <mxRectangle width="30" height="30" as="alternateBounds" />
          </mxGeometry>
        </mxCell>
        <mxCell id="-Ajo2ekiVwMD1QqtX69g-744" value="`create_by`" style="shape=partialRectangle;overflow=hidden;connectable=0;fillColor=none;align=left;strokeColor=#457B9D;top=0;left=0;bottom=0;right=0;spacingLeft=6;rounded=1;labelBackgroundColor=none;fontColor=#1D3557;" vertex="1" parent="-Ajo2ekiVwMD1QqtX69g-742">
          <mxGeometry x="30" width="150" height="30" as="geometry">
            <mxRectangle width="150" height="30" as="alternateBounds" />
          </mxGeometry>
        </mxCell>
        <mxCell id="-Ajo2ekiVwMD1QqtX69g-745" value="" style="shape=tableRow;horizontal=0;startSize=0;swimlaneHead=0;swimlaneBody=0;fillColor=none;collapsible=0;dropTarget=0;points=[[0,0.5],[1,0.5]];portConstraint=eastwest;strokeColor=#457B9D;top=0;left=0;right=0;bottom=0;rounded=1;labelBackgroundColor=none;fontColor=#1D3557;" vertex="1" parent="-Ajo2ekiVwMD1QqtX69g-720">
          <mxGeometry y="270" width="180" height="30" as="geometry" />
        </mxCell>
        <mxCell id="-Ajo2ekiVwMD1QqtX69g-746" value="" style="shape=partialRectangle;overflow=hidden;connectable=0;fillColor=none;strokeColor=#457B9D;top=0;left=0;bottom=0;right=0;rounded=1;labelBackgroundColor=none;fontColor=#1D3557;" vertex="1" parent="-Ajo2ekiVwMD1QqtX69g-745">
          <mxGeometry width="30" height="30" as="geometry">
            <mxRectangle width="30" height="30" as="alternateBounds" />
          </mxGeometry>
        </mxCell>
        <mxCell id="-Ajo2ekiVwMD1QqtX69g-747" value="`update_by`" style="shape=partialRectangle;overflow=hidden;connectable=0;fillColor=none;align=left;strokeColor=#457B9D;top=0;left=0;bottom=0;right=0;spacingLeft=6;rounded=1;labelBackgroundColor=none;fontColor=#1D3557;" vertex="1" parent="-Ajo2ekiVwMD1QqtX69g-745">
          <mxGeometry x="30" width="150" height="30" as="geometry">
            <mxRectangle width="150" height="30" as="alternateBounds" />
          </mxGeometry>
        </mxCell>
        <mxCell id="-Ajo2ekiVwMD1QqtX69g-748" value="" style="shape=tableRow;horizontal=0;startSize=0;swimlaneHead=0;swimlaneBody=0;fillColor=none;collapsible=0;dropTarget=0;points=[[0,0.5],[1,0.5]];portConstraint=eastwest;strokeColor=#457B9D;top=0;left=0;right=0;bottom=0;rounded=1;labelBackgroundColor=none;fontColor=#1D3557;" vertex="1" parent="-Ajo2ekiVwMD1QqtX69g-720">
          <mxGeometry y="300" width="180" height="30" as="geometry" />
        </mxCell>
        <mxCell id="-Ajo2ekiVwMD1QqtX69g-749" value="" style="shape=partialRectangle;overflow=hidden;connectable=0;fillColor=none;strokeColor=#457B9D;top=0;left=0;bottom=0;right=0;rounded=1;labelBackgroundColor=none;fontColor=#1D3557;" vertex="1" parent="-Ajo2ekiVwMD1QqtX69g-748">
          <mxGeometry width="30" height="30" as="geometry">
            <mxRectangle width="30" height="30" as="alternateBounds" />
          </mxGeometry>
        </mxCell>
        <mxCell id="-Ajo2ekiVwMD1QqtX69g-750" value="`delete_flag`" style="shape=partialRectangle;overflow=hidden;connectable=0;fillColor=none;align=left;strokeColor=#457B9D;top=0;left=0;bottom=0;right=0;spacingLeft=6;rounded=1;labelBackgroundColor=none;fontColor=#1D3557;" vertex="1" parent="-Ajo2ekiVwMD1QqtX69g-748">
          <mxGeometry x="30" width="150" height="30" as="geometry">
            <mxRectangle width="150" height="30" as="alternateBounds" />
          </mxGeometry>
        </mxCell>
        <mxCell id="-Ajo2ekiVwMD1QqtX69g-751" value="企业表&#xa;`sys_company`" style="shape=table;startSize=30;container=1;collapsible=1;childLayout=tableLayout;fixedRows=1;rowLines=0;fontStyle=1;align=center;resizeLast=1;rounded=1;labelBackgroundColor=none;fillColor=#A8DADC;strokeColor=#457B9D;fontColor=#1D3557;" vertex="1" parent="1">
          <mxGeometry x="-1400" y="190" width="180" height="290" as="geometry" />
        </mxCell>
        <mxCell id="-Ajo2ekiVwMD1QqtX69g-752" value="" style="shape=tableRow;horizontal=0;startSize=0;swimlaneHead=0;swimlaneBody=0;fillColor=none;collapsible=0;dropTarget=0;points=[[0,0.5],[1,0.5]];portConstraint=eastwest;strokeColor=#457B9D;top=0;left=0;right=0;bottom=1;rounded=1;labelBackgroundColor=none;fontColor=#1D3557;" vertex="1" parent="-Ajo2ekiVwMD1QqtX69g-751">
          <mxGeometry y="30" width="180" height="30" as="geometry" />
        </mxCell>
        <mxCell id="-Ajo2ekiVwMD1QqtX69g-753" value="PK" style="shape=partialRectangle;overflow=hidden;connectable=0;fillColor=none;strokeColor=#457B9D;top=0;left=0;bottom=0;right=0;fontStyle=1;rounded=1;labelBackgroundColor=none;fontColor=#1D3557;" vertex="1" parent="-Ajo2ekiVwMD1QqtX69g-752">
          <mxGeometry width="30" height="30" as="geometry">
            <mxRectangle width="30" height="30" as="alternateBounds" />
          </mxGeometry>
        </mxCell>
        <mxCell id="-Ajo2ekiVwMD1QqtX69g-754" value="`id`" style="shape=partialRectangle;overflow=hidden;connectable=0;fillColor=none;align=left;strokeColor=#457B9D;top=0;left=0;bottom=0;right=0;spacingLeft=6;fontStyle=5;rounded=1;labelBackgroundColor=none;fontColor=#1D3557;" vertex="1" parent="-Ajo2ekiVwMD1QqtX69g-752">
          <mxGeometry x="30" width="150" height="30" as="geometry">
            <mxRectangle width="150" height="30" as="alternateBounds" />
          </mxGeometry>
        </mxCell>
        <mxCell id="-Ajo2ekiVwMD1QqtX69g-755" value="" style="shape=tableRow;horizontal=0;startSize=0;swimlaneHead=0;swimlaneBody=0;fillColor=none;collapsible=0;dropTarget=0;points=[[0,0.5],[1,0.5]];portConstraint=eastwest;strokeColor=#457B9D;top=0;left=0;right=0;bottom=0;rounded=1;labelBackgroundColor=none;fontColor=#1D3557;" vertex="1" parent="-Ajo2ekiVwMD1QqtX69g-751">
          <mxGeometry y="60" width="180" height="30" as="geometry" />
        </mxCell>
        <mxCell id="-Ajo2ekiVwMD1QqtX69g-756" value="" style="shape=partialRectangle;overflow=hidden;connectable=0;fillColor=none;strokeColor=#457B9D;top=0;left=0;bottom=0;right=0;rounded=1;labelBackgroundColor=none;fontColor=#1D3557;" vertex="1" parent="-Ajo2ekiVwMD1QqtX69g-755">
          <mxGeometry width="30" height="30" as="geometry">
            <mxRectangle width="30" height="30" as="alternateBounds" />
          </mxGeometry>
        </mxCell>
        <mxCell id="-Ajo2ekiVwMD1QqtX69g-757" value="`company_code`" style="shape=partialRectangle;overflow=hidden;connectable=0;fillColor=none;align=left;strokeColor=#457B9D;top=0;left=0;bottom=0;right=0;spacingLeft=6;rounded=1;labelBackgroundColor=none;fontColor=#1D3557;" vertex="1" parent="-Ajo2ekiVwMD1QqtX69g-755">
          <mxGeometry x="30" width="150" height="30" as="geometry">
            <mxRectangle width="150" height="30" as="alternateBounds" />
          </mxGeometry>
        </mxCell>
        <mxCell id="-Ajo2ekiVwMD1QqtX69g-758" value="" style="shape=tableRow;horizontal=0;startSize=0;swimlaneHead=0;swimlaneBody=0;fillColor=none;collapsible=0;dropTarget=0;points=[[0,0.5],[1,0.5]];portConstraint=eastwest;strokeColor=#457B9D;top=0;left=0;right=0;bottom=0;rounded=1;labelBackgroundColor=none;fontColor=#1D3557;" vertex="1" parent="-Ajo2ekiVwMD1QqtX69g-751">
          <mxGeometry y="90" width="180" height="30" as="geometry" />
        </mxCell>
        <mxCell id="-Ajo2ekiVwMD1QqtX69g-759" value="" style="shape=partialRectangle;overflow=hidden;connectable=0;fillColor=none;strokeColor=#457B9D;top=0;left=0;bottom=0;right=0;rounded=1;labelBackgroundColor=none;fontColor=#1D3557;" vertex="1" parent="-Ajo2ekiVwMD1QqtX69g-758">
          <mxGeometry width="30" height="30" as="geometry">
            <mxRectangle width="30" height="30" as="alternateBounds" />
          </mxGeometry>
        </mxCell>
        <mxCell id="-Ajo2ekiVwMD1QqtX69g-760" value="`company_name`" style="shape=partialRectangle;overflow=hidden;connectable=0;fillColor=none;align=left;strokeColor=#457B9D;top=0;left=0;bottom=0;right=0;spacingLeft=6;rounded=1;labelBackgroundColor=none;fontColor=#1D3557;" vertex="1" parent="-Ajo2ekiVwMD1QqtX69g-758">
          <mxGeometry x="30" width="150" height="30" as="geometry">
            <mxRectangle width="150" height="30" as="alternateBounds" />
          </mxGeometry>
        </mxCell>
        <mxCell id="-Ajo2ekiVwMD1QqtX69g-761" value="" style="shape=tableRow;horizontal=0;startSize=0;swimlaneHead=0;swimlaneBody=0;fillColor=none;collapsible=0;dropTarget=0;points=[[0,0.5],[1,0.5]];portConstraint=eastwest;strokeColor=#457B9D;top=0;left=0;right=0;bottom=0;rounded=1;labelBackgroundColor=none;fontColor=#1D3557;" vertex="1" parent="-Ajo2ekiVwMD1QqtX69g-751">
          <mxGeometry y="120" width="180" height="30" as="geometry" />
        </mxCell>
        <mxCell id="-Ajo2ekiVwMD1QqtX69g-762" value="" style="shape=partialRectangle;overflow=hidden;connectable=0;fillColor=none;strokeColor=#457B9D;top=0;left=0;bottom=0;right=0;rounded=1;labelBackgroundColor=none;fontColor=#1D3557;" vertex="1" parent="-Ajo2ekiVwMD1QqtX69g-761">
          <mxGeometry width="30" height="30" as="geometry">
            <mxRectangle width="30" height="30" as="alternateBounds" />
          </mxGeometry>
        </mxCell>
        <mxCell id="-Ajo2ekiVwMD1QqtX69g-763" value="`company_description`" style="shape=partialRectangle;overflow=hidden;connectable=0;fillColor=none;align=left;strokeColor=#457B9D;top=0;left=0;bottom=0;right=0;spacingLeft=6;rounded=1;labelBackgroundColor=none;fontColor=#1D3557;" vertex="1" parent="-Ajo2ekiVwMD1QqtX69g-761">
          <mxGeometry x="30" width="150" height="30" as="geometry">
            <mxRectangle width="150" height="30" as="alternateBounds" />
          </mxGeometry>
        </mxCell>
        <mxCell id="-Ajo2ekiVwMD1QqtX69g-764" value="" style="shape=tableRow;horizontal=0;startSize=0;swimlaneHead=0;swimlaneBody=0;fillColor=none;collapsible=0;dropTarget=0;points=[[0,0.5],[1,0.5]];portConstraint=eastwest;strokeColor=#457B9D;top=0;left=0;right=0;bottom=0;rounded=1;labelBackgroundColor=none;fontColor=#1D3557;" vertex="1" parent="-Ajo2ekiVwMD1QqtX69g-751">
          <mxGeometry y="150" width="180" height="30" as="geometry" />
        </mxCell>
        <mxCell id="-Ajo2ekiVwMD1QqtX69g-765" value="" style="shape=partialRectangle;overflow=hidden;connectable=0;fillColor=none;strokeColor=#457B9D;top=0;left=0;bottom=0;right=0;rounded=1;labelBackgroundColor=none;fontColor=#1D3557;" vertex="1" parent="-Ajo2ekiVwMD1QqtX69g-764">
          <mxGeometry width="30" height="30" as="geometry">
            <mxRectangle width="30" height="30" as="alternateBounds" />
          </mxGeometry>
        </mxCell>
        <mxCell id="-Ajo2ekiVwMD1QqtX69g-766" value="`delete_flag`" style="shape=partialRectangle;overflow=hidden;connectable=0;fillColor=none;align=left;strokeColor=#457B9D;top=0;left=0;bottom=0;right=0;spacingLeft=6;rounded=1;labelBackgroundColor=none;fontColor=#1D3557;" vertex="1" parent="-Ajo2ekiVwMD1QqtX69g-764">
          <mxGeometry x="30" width="150" height="30" as="geometry">
            <mxRectangle width="150" height="30" as="alternateBounds" />
          </mxGeometry>
        </mxCell>
        <mxCell id="-Ajo2ekiVwMD1QqtX69g-767" value="" style="shape=tableRow;horizontal=0;startSize=0;swimlaneHead=0;swimlaneBody=0;fillColor=none;collapsible=0;dropTarget=0;points=[[0,0.5],[1,0.5]];portConstraint=eastwest;strokeColor=#457B9D;top=0;left=0;right=0;bottom=0;rounded=1;labelBackgroundColor=none;fontColor=#1D3557;" vertex="1" parent="-Ajo2ekiVwMD1QqtX69g-751">
          <mxGeometry y="180" width="180" height="30" as="geometry" />
        </mxCell>
        <mxCell id="-Ajo2ekiVwMD1QqtX69g-768" value="" style="shape=partialRectangle;overflow=hidden;connectable=0;fillColor=none;strokeColor=#457B9D;top=0;left=0;bottom=0;right=0;rounded=1;labelBackgroundColor=none;fontColor=#1D3557;" vertex="1" parent="-Ajo2ekiVwMD1QqtX69g-767">
          <mxGeometry width="30" height="30" as="geometry">
            <mxRectangle width="30" height="30" as="alternateBounds" />
          </mxGeometry>
        </mxCell>
        <mxCell id="-Ajo2ekiVwMD1QqtX69g-769" value="`create_date`" style="shape=partialRectangle;overflow=hidden;connectable=0;fillColor=none;align=left;strokeColor=#457B9D;top=0;left=0;bottom=0;right=0;spacingLeft=6;rounded=1;labelBackgroundColor=none;fontColor=#1D3557;" vertex="1" parent="-Ajo2ekiVwMD1QqtX69g-767">
          <mxGeometry x="30" width="150" height="30" as="geometry">
            <mxRectangle width="150" height="30" as="alternateBounds" />
          </mxGeometry>
        </mxCell>
        <mxCell id="-Ajo2ekiVwMD1QqtX69g-770" value="" style="shape=tableRow;horizontal=0;startSize=0;swimlaneHead=0;swimlaneBody=0;fillColor=none;collapsible=0;dropTarget=0;points=[[0,0.5],[1,0.5]];portConstraint=eastwest;strokeColor=#457B9D;top=0;left=0;right=0;bottom=0;rounded=1;labelBackgroundColor=none;fontColor=#1D3557;" vertex="1" parent="-Ajo2ekiVwMD1QqtX69g-751">
          <mxGeometry y="210" width="180" height="30" as="geometry" />
        </mxCell>
        <mxCell id="-Ajo2ekiVwMD1QqtX69g-771" value="" style="shape=partialRectangle;overflow=hidden;connectable=0;fillColor=none;strokeColor=#457B9D;top=0;left=0;bottom=0;right=0;rounded=1;labelBackgroundColor=none;fontColor=#1D3557;" vertex="1" parent="-Ajo2ekiVwMD1QqtX69g-770">
          <mxGeometry width="30" height="30" as="geometry">
            <mxRectangle width="30" height="30" as="alternateBounds" />
          </mxGeometry>
        </mxCell>
        <mxCell id="-Ajo2ekiVwMD1QqtX69g-772" value="`update_date`" style="shape=partialRectangle;overflow=hidden;connectable=0;fillColor=none;align=left;strokeColor=#457B9D;top=0;left=0;bottom=0;right=0;spacingLeft=6;rounded=1;labelBackgroundColor=none;fontColor=#1D3557;" vertex="1" parent="-Ajo2ekiVwMD1QqtX69g-770">
          <mxGeometry x="30" width="150" height="30" as="geometry">
            <mxRectangle width="150" height="30" as="alternateBounds" />
          </mxGeometry>
        </mxCell>
        <mxCell id="-Ajo2ekiVwMD1QqtX69g-773" value="" style="shape=tableRow;horizontal=0;startSize=0;swimlaneHead=0;swimlaneBody=0;fillColor=none;collapsible=0;dropTarget=0;points=[[0,0.5],[1,0.5]];portConstraint=eastwest;strokeColor=#457B9D;top=0;left=0;right=0;bottom=0;rounded=1;labelBackgroundColor=none;fontColor=#1D3557;" vertex="1" parent="-Ajo2ekiVwMD1QqtX69g-751">
          <mxGeometry y="240" width="180" height="30" as="geometry" />
        </mxCell>
        <mxCell id="-Ajo2ekiVwMD1QqtX69g-774" value="" style="shape=partialRectangle;overflow=hidden;connectable=0;fillColor=none;strokeColor=#457B9D;top=0;left=0;bottom=0;right=0;rounded=1;labelBackgroundColor=none;fontColor=#1D3557;" vertex="1" parent="-Ajo2ekiVwMD1QqtX69g-773">
          <mxGeometry width="30" height="30" as="geometry">
            <mxRectangle width="30" height="30" as="alternateBounds" />
          </mxGeometry>
        </mxCell>
        <mxCell id="-Ajo2ekiVwMD1QqtX69g-775" value="`create_by`" style="shape=partialRectangle;overflow=hidden;connectable=0;fillColor=none;align=left;strokeColor=#457B9D;top=0;left=0;bottom=0;right=0;spacingLeft=6;rounded=1;labelBackgroundColor=none;fontColor=#1D3557;" vertex="1" parent="-Ajo2ekiVwMD1QqtX69g-773">
          <mxGeometry x="30" width="150" height="30" as="geometry">
            <mxRectangle width="150" height="30" as="alternateBounds" />
          </mxGeometry>
        </mxCell>
        <mxCell id="-Ajo2ekiVwMD1QqtX69g-776" value="" style="shape=tableRow;horizontal=0;startSize=0;swimlaneHead=0;swimlaneBody=0;fillColor=none;collapsible=0;dropTarget=0;points=[[0,0.5],[1,0.5]];portConstraint=eastwest;strokeColor=#457B9D;top=0;left=0;right=0;bottom=0;rounded=1;labelBackgroundColor=none;fontColor=#1D3557;" vertex="1" parent="-Ajo2ekiVwMD1QqtX69g-751">
          <mxGeometry y="270" width="180" height="20" as="geometry" />
        </mxCell>
        <mxCell id="-Ajo2ekiVwMD1QqtX69g-777" value="" style="shape=partialRectangle;overflow=hidden;connectable=0;fillColor=none;strokeColor=#457B9D;top=0;left=0;bottom=0;right=0;rounded=1;labelBackgroundColor=none;fontColor=#1D3557;" vertex="1" parent="-Ajo2ekiVwMD1QqtX69g-776">
          <mxGeometry width="30" height="20" as="geometry">
            <mxRectangle width="30" height="20" as="alternateBounds" />
          </mxGeometry>
        </mxCell>
        <mxCell id="-Ajo2ekiVwMD1QqtX69g-778" value="`update_by`" style="shape=partialRectangle;overflow=hidden;connectable=0;fillColor=none;align=left;strokeColor=#457B9D;top=0;left=0;bottom=0;right=0;spacingLeft=6;rounded=1;labelBackgroundColor=none;fontColor=#1D3557;" vertex="1" parent="-Ajo2ekiVwMD1QqtX69g-776">
          <mxGeometry x="30" width="150" height="20" as="geometry">
            <mxRectangle width="150" height="20" as="alternateBounds" />
          </mxGeometry>
        </mxCell>
        <mxCell id="-Ajo2ekiVwMD1QqtX69g-779" value="团队&#xa;`sys_team`" style="shape=table;startSize=30;container=1;collapsible=1;childLayout=tableLayout;fixedRows=1;rowLines=0;fontStyle=1;align=center;resizeLast=1;rounded=1;labelBackgroundColor=none;fillColor=#A8DADC;strokeColor=#457B9D;fontColor=#1D3557;" vertex="1" parent="1">
          <mxGeometry x="-1160" y="160" width="180" height="320" as="geometry" />
        </mxCell>
        <mxCell id="-Ajo2ekiVwMD1QqtX69g-780" value="" style="shape=tableRow;horizontal=0;startSize=0;swimlaneHead=0;swimlaneBody=0;fillColor=none;collapsible=0;dropTarget=0;points=[[0,0.5],[1,0.5]];portConstraint=eastwest;strokeColor=#457B9D;top=0;left=0;right=0;bottom=1;rounded=1;labelBackgroundColor=none;fontColor=#1D3557;" vertex="1" parent="-Ajo2ekiVwMD1QqtX69g-779">
          <mxGeometry y="30" width="180" height="30" as="geometry" />
        </mxCell>
        <mxCell id="-Ajo2ekiVwMD1QqtX69g-781" value="PK" style="shape=partialRectangle;overflow=hidden;connectable=0;fillColor=none;strokeColor=#457B9D;top=0;left=0;bottom=0;right=0;fontStyle=1;rounded=1;labelBackgroundColor=none;fontColor=#1D3557;" vertex="1" parent="-Ajo2ekiVwMD1QqtX69g-780">
          <mxGeometry width="30" height="30" as="geometry">
            <mxRectangle width="30" height="30" as="alternateBounds" />
          </mxGeometry>
        </mxCell>
        <mxCell id="-Ajo2ekiVwMD1QqtX69g-782" value="`id`" style="shape=partialRectangle;overflow=hidden;connectable=0;fillColor=none;align=left;strokeColor=#457B9D;top=0;left=0;bottom=0;right=0;spacingLeft=6;fontStyle=5;rounded=1;labelBackgroundColor=none;fontColor=#1D3557;" vertex="1" parent="-Ajo2ekiVwMD1QqtX69g-780">
          <mxGeometry x="30" width="150" height="30" as="geometry">
            <mxRectangle width="150" height="30" as="alternateBounds" />
          </mxGeometry>
        </mxCell>
        <mxCell id="-Ajo2ekiVwMD1QqtX69g-783" value="" style="shape=tableRow;horizontal=0;startSize=0;swimlaneHead=0;swimlaneBody=0;fillColor=none;collapsible=0;dropTarget=0;points=[[0,0.5],[1,0.5]];portConstraint=eastwest;strokeColor=#457B9D;top=0;left=0;right=0;bottom=0;rounded=1;labelBackgroundColor=none;fontColor=#1D3557;" vertex="1" parent="-Ajo2ekiVwMD1QqtX69g-779">
          <mxGeometry y="60" width="180" height="30" as="geometry" />
        </mxCell>
        <mxCell id="-Ajo2ekiVwMD1QqtX69g-784" value="" style="shape=partialRectangle;overflow=hidden;connectable=0;fillColor=none;strokeColor=#457B9D;top=0;left=0;bottom=0;right=0;rounded=1;labelBackgroundColor=none;fontColor=#1D3557;" vertex="1" parent="-Ajo2ekiVwMD1QqtX69g-783">
          <mxGeometry width="30" height="30" as="geometry">
            <mxRectangle width="30" height="30" as="alternateBounds" />
          </mxGeometry>
        </mxCell>
        <mxCell id="-Ajo2ekiVwMD1QqtX69g-785" value="`company_id`" style="shape=partialRectangle;overflow=hidden;connectable=0;fillColor=none;align=left;strokeColor=#457B9D;top=0;left=0;bottom=0;right=0;spacingLeft=6;rounded=1;labelBackgroundColor=none;fontColor=#1D3557;" vertex="1" parent="-Ajo2ekiVwMD1QqtX69g-783">
          <mxGeometry x="30" width="150" height="30" as="geometry">
            <mxRectangle width="150" height="30" as="alternateBounds" />
          </mxGeometry>
        </mxCell>
        <mxCell id="-Ajo2ekiVwMD1QqtX69g-786" value="" style="shape=tableRow;horizontal=0;startSize=0;swimlaneHead=0;swimlaneBody=0;fillColor=none;collapsible=0;dropTarget=0;points=[[0,0.5],[1,0.5]];portConstraint=eastwest;strokeColor=#457B9D;top=0;left=0;right=0;bottom=0;rounded=1;labelBackgroundColor=none;fontColor=#1D3557;" vertex="1" parent="-Ajo2ekiVwMD1QqtX69g-779">
          <mxGeometry y="90" width="180" height="30" as="geometry" />
        </mxCell>
        <mxCell id="-Ajo2ekiVwMD1QqtX69g-787" value="" style="shape=partialRectangle;overflow=hidden;connectable=0;fillColor=none;strokeColor=#457B9D;top=0;left=0;bottom=0;right=0;rounded=1;labelBackgroundColor=none;fontColor=#1D3557;" vertex="1" parent="-Ajo2ekiVwMD1QqtX69g-786">
          <mxGeometry width="30" height="30" as="geometry">
            <mxRectangle width="30" height="30" as="alternateBounds" />
          </mxGeometry>
        </mxCell>
        <mxCell id="-Ajo2ekiVwMD1QqtX69g-788" value="`team_name`" style="shape=partialRectangle;overflow=hidden;connectable=0;fillColor=none;align=left;strokeColor=#457B9D;top=0;left=0;bottom=0;right=0;spacingLeft=6;rounded=1;labelBackgroundColor=none;fontColor=#1D3557;" vertex="1" parent="-Ajo2ekiVwMD1QqtX69g-786">
          <mxGeometry x="30" width="150" height="30" as="geometry">
            <mxRectangle width="150" height="30" as="alternateBounds" />
          </mxGeometry>
        </mxCell>
        <mxCell id="-Ajo2ekiVwMD1QqtX69g-789" value="" style="shape=tableRow;horizontal=0;startSize=0;swimlaneHead=0;swimlaneBody=0;fillColor=none;collapsible=0;dropTarget=0;points=[[0,0.5],[1,0.5]];portConstraint=eastwest;strokeColor=#457B9D;top=0;left=0;right=0;bottom=0;rounded=1;labelBackgroundColor=none;fontColor=#1D3557;" vertex="1" parent="-Ajo2ekiVwMD1QqtX69g-779">
          <mxGeometry y="120" width="180" height="30" as="geometry" />
        </mxCell>
        <mxCell id="-Ajo2ekiVwMD1QqtX69g-790" value="" style="shape=partialRectangle;overflow=hidden;connectable=0;fillColor=none;strokeColor=#457B9D;top=0;left=0;bottom=0;right=0;rounded=1;labelBackgroundColor=none;fontColor=#1D3557;" vertex="1" parent="-Ajo2ekiVwMD1QqtX69g-789">
          <mxGeometry width="30" height="30" as="geometry">
            <mxRectangle width="30" height="30" as="alternateBounds" />
          </mxGeometry>
        </mxCell>
        <mxCell id="-Ajo2ekiVwMD1QqtX69g-791" value="`team_description`" style="shape=partialRectangle;overflow=hidden;connectable=0;fillColor=none;align=left;strokeColor=#457B9D;top=0;left=0;bottom=0;right=0;spacingLeft=6;rounded=1;labelBackgroundColor=none;fontColor=#1D3557;" vertex="1" parent="-Ajo2ekiVwMD1QqtX69g-789">
          <mxGeometry x="30" width="150" height="30" as="geometry">
            <mxRectangle width="150" height="30" as="alternateBounds" />
          </mxGeometry>
        </mxCell>
        <mxCell id="-Ajo2ekiVwMD1QqtX69g-792" value="" style="shape=tableRow;horizontal=0;startSize=0;swimlaneHead=0;swimlaneBody=0;fillColor=none;collapsible=0;dropTarget=0;points=[[0,0.5],[1,0.5]];portConstraint=eastwest;strokeColor=#457B9D;top=0;left=0;right=0;bottom=0;rounded=1;labelBackgroundColor=none;fontColor=#1D3557;" vertex="1" parent="-Ajo2ekiVwMD1QqtX69g-779">
          <mxGeometry y="150" width="180" height="30" as="geometry" />
        </mxCell>
        <mxCell id="-Ajo2ekiVwMD1QqtX69g-793" value="" style="shape=partialRectangle;overflow=hidden;connectable=0;fillColor=none;strokeColor=#457B9D;top=0;left=0;bottom=0;right=0;rounded=1;labelBackgroundColor=none;fontColor=#1D3557;" vertex="1" parent="-Ajo2ekiVwMD1QqtX69g-792">
          <mxGeometry width="30" height="30" as="geometry">
            <mxRectangle width="30" height="30" as="alternateBounds" />
          </mxGeometry>
        </mxCell>
        <mxCell id="-Ajo2ekiVwMD1QqtX69g-794" value="`team_invite_code`" style="shape=partialRectangle;overflow=hidden;connectable=0;fillColor=none;align=left;strokeColor=#457B9D;top=0;left=0;bottom=0;right=0;spacingLeft=6;rounded=1;labelBackgroundColor=none;fontColor=#1D3557;" vertex="1" parent="-Ajo2ekiVwMD1QqtX69g-792">
          <mxGeometry x="30" width="150" height="30" as="geometry">
            <mxRectangle width="150" height="30" as="alternateBounds" />
          </mxGeometry>
        </mxCell>
        <mxCell id="-Ajo2ekiVwMD1QqtX69g-795" value="" style="shape=tableRow;horizontal=0;startSize=0;swimlaneHead=0;swimlaneBody=0;fillColor=none;collapsible=0;dropTarget=0;points=[[0,0.5],[1,0.5]];portConstraint=eastwest;strokeColor=#457B9D;top=0;left=0;right=0;bottom=0;rounded=1;labelBackgroundColor=none;fontColor=#1D3557;" vertex="1" parent="-Ajo2ekiVwMD1QqtX69g-779">
          <mxGeometry y="180" width="180" height="30" as="geometry" />
        </mxCell>
        <mxCell id="-Ajo2ekiVwMD1QqtX69g-796" value="" style="shape=partialRectangle;overflow=hidden;connectable=0;fillColor=none;strokeColor=#457B9D;top=0;left=0;bottom=0;right=0;rounded=1;labelBackgroundColor=none;fontColor=#1D3557;" vertex="1" parent="-Ajo2ekiVwMD1QqtX69g-795">
          <mxGeometry width="30" height="30" as="geometry">
            <mxRectangle width="30" height="30" as="alternateBounds" />
          </mxGeometry>
        </mxCell>
        <mxCell id="-Ajo2ekiVwMD1QqtX69g-797" value="`delete_flag`" style="shape=partialRectangle;overflow=hidden;connectable=0;fillColor=none;align=left;strokeColor=#457B9D;top=0;left=0;bottom=0;right=0;spacingLeft=6;rounded=1;labelBackgroundColor=none;fontColor=#1D3557;" vertex="1" parent="-Ajo2ekiVwMD1QqtX69g-795">
          <mxGeometry x="30" width="150" height="30" as="geometry">
            <mxRectangle width="150" height="30" as="alternateBounds" />
          </mxGeometry>
        </mxCell>
        <mxCell id="-Ajo2ekiVwMD1QqtX69g-798" value="" style="shape=tableRow;horizontal=0;startSize=0;swimlaneHead=0;swimlaneBody=0;fillColor=none;collapsible=0;dropTarget=0;points=[[0,0.5],[1,0.5]];portConstraint=eastwest;strokeColor=#457B9D;top=0;left=0;right=0;bottom=0;rounded=1;labelBackgroundColor=none;fontColor=#1D3557;" vertex="1" parent="-Ajo2ekiVwMD1QqtX69g-779">
          <mxGeometry y="210" width="180" height="30" as="geometry" />
        </mxCell>
        <mxCell id="-Ajo2ekiVwMD1QqtX69g-799" value="" style="shape=partialRectangle;overflow=hidden;connectable=0;fillColor=none;strokeColor=#457B9D;top=0;left=0;bottom=0;right=0;rounded=1;labelBackgroundColor=none;fontColor=#1D3557;" vertex="1" parent="-Ajo2ekiVwMD1QqtX69g-798">
          <mxGeometry width="30" height="30" as="geometry">
            <mxRectangle width="30" height="30" as="alternateBounds" />
          </mxGeometry>
        </mxCell>
        <mxCell id="-Ajo2ekiVwMD1QqtX69g-800" value="`create_date`" style="shape=partialRectangle;overflow=hidden;connectable=0;fillColor=none;align=left;strokeColor=#457B9D;top=0;left=0;bottom=0;right=0;spacingLeft=6;rounded=1;labelBackgroundColor=none;fontColor=#1D3557;" vertex="1" parent="-Ajo2ekiVwMD1QqtX69g-798">
          <mxGeometry x="30" width="150" height="30" as="geometry">
            <mxRectangle width="150" height="30" as="alternateBounds" />
          </mxGeometry>
        </mxCell>
        <mxCell id="-Ajo2ekiVwMD1QqtX69g-801" value="" style="shape=tableRow;horizontal=0;startSize=0;swimlaneHead=0;swimlaneBody=0;fillColor=none;collapsible=0;dropTarget=0;points=[[0,0.5],[1,0.5]];portConstraint=eastwest;strokeColor=#457B9D;top=0;left=0;right=0;bottom=0;rounded=1;labelBackgroundColor=none;fontColor=#1D3557;" vertex="1" parent="-Ajo2ekiVwMD1QqtX69g-779">
          <mxGeometry y="240" width="180" height="30" as="geometry" />
        </mxCell>
        <mxCell id="-Ajo2ekiVwMD1QqtX69g-802" value="" style="shape=partialRectangle;overflow=hidden;connectable=0;fillColor=none;strokeColor=#457B9D;top=0;left=0;bottom=0;right=0;rounded=1;labelBackgroundColor=none;fontColor=#1D3557;" vertex="1" parent="-Ajo2ekiVwMD1QqtX69g-801">
          <mxGeometry width="30" height="30" as="geometry">
            <mxRectangle width="30" height="30" as="alternateBounds" />
          </mxGeometry>
        </mxCell>
        <mxCell id="-Ajo2ekiVwMD1QqtX69g-803" value="`update_date`" style="shape=partialRectangle;overflow=hidden;connectable=0;fillColor=none;align=left;strokeColor=#457B9D;top=0;left=0;bottom=0;right=0;spacingLeft=6;rounded=1;labelBackgroundColor=none;fontColor=#1D3557;" vertex="1" parent="-Ajo2ekiVwMD1QqtX69g-801">
          <mxGeometry x="30" width="150" height="30" as="geometry">
            <mxRectangle width="150" height="30" as="alternateBounds" />
          </mxGeometry>
        </mxCell>
        <mxCell id="-Ajo2ekiVwMD1QqtX69g-804" value="" style="shape=tableRow;horizontal=0;startSize=0;swimlaneHead=0;swimlaneBody=0;fillColor=none;collapsible=0;dropTarget=0;points=[[0,0.5],[1,0.5]];portConstraint=eastwest;strokeColor=#457B9D;top=0;left=0;right=0;bottom=0;rounded=1;labelBackgroundColor=none;fontColor=#1D3557;" vertex="1" parent="-Ajo2ekiVwMD1QqtX69g-779">
          <mxGeometry y="270" width="180" height="30" as="geometry" />
        </mxCell>
        <mxCell id="-Ajo2ekiVwMD1QqtX69g-805" value="" style="shape=partialRectangle;overflow=hidden;connectable=0;fillColor=none;strokeColor=#457B9D;top=0;left=0;bottom=0;right=0;rounded=1;labelBackgroundColor=none;fontColor=#1D3557;" vertex="1" parent="-Ajo2ekiVwMD1QqtX69g-804">
          <mxGeometry width="30" height="30" as="geometry">
            <mxRectangle width="30" height="30" as="alternateBounds" />
          </mxGeometry>
        </mxCell>
        <mxCell id="-Ajo2ekiVwMD1QqtX69g-806" value="`create_by`" style="shape=partialRectangle;overflow=hidden;connectable=0;fillColor=none;align=left;strokeColor=#457B9D;top=0;left=0;bottom=0;right=0;spacingLeft=6;rounded=1;labelBackgroundColor=none;fontColor=#1D3557;" vertex="1" parent="-Ajo2ekiVwMD1QqtX69g-804">
          <mxGeometry x="30" width="150" height="30" as="geometry">
            <mxRectangle width="150" height="30" as="alternateBounds" />
          </mxGeometry>
        </mxCell>
        <mxCell id="-Ajo2ekiVwMD1QqtX69g-807" value="" style="shape=tableRow;horizontal=0;startSize=0;swimlaneHead=0;swimlaneBody=0;fillColor=none;collapsible=0;dropTarget=0;points=[[0,0.5],[1,0.5]];portConstraint=eastwest;strokeColor=#457B9D;top=0;left=0;right=0;bottom=0;rounded=1;labelBackgroundColor=none;fontColor=#1D3557;" vertex="1" parent="-Ajo2ekiVwMD1QqtX69g-779">
          <mxGeometry y="300" width="180" height="20" as="geometry" />
        </mxCell>
        <mxCell id="-Ajo2ekiVwMD1QqtX69g-808" value="" style="shape=partialRectangle;overflow=hidden;connectable=0;fillColor=none;strokeColor=#457B9D;top=0;left=0;bottom=0;right=0;rounded=1;labelBackgroundColor=none;fontColor=#1D3557;" vertex="1" parent="-Ajo2ekiVwMD1QqtX69g-807">
          <mxGeometry width="30" height="20" as="geometry">
            <mxRectangle width="30" height="20" as="alternateBounds" />
          </mxGeometry>
        </mxCell>
        <mxCell id="-Ajo2ekiVwMD1QqtX69g-809" value="`update_by`" style="shape=partialRectangle;overflow=hidden;connectable=0;fillColor=none;align=left;strokeColor=#457B9D;top=0;left=0;bottom=0;right=0;spacingLeft=6;rounded=1;labelBackgroundColor=none;fontColor=#1D3557;" vertex="1" parent="-Ajo2ekiVwMD1QqtX69g-807">
          <mxGeometry x="30" width="150" height="20" as="geometry">
            <mxRectangle width="150" height="20" as="alternateBounds" />
          </mxGeometry>
        </mxCell>
        <mxCell id="-Ajo2ekiVwMD1QqtX69g-810" value="团队成员&#xa;`sys_team_member`" style="shape=table;startSize=30;container=1;collapsible=1;childLayout=tableLayout;fixedRows=1;rowLines=0;fontStyle=1;align=center;resizeLast=1;rounded=1;labelBackgroundColor=none;fillColor=#A8DADC;strokeColor=#457B9D;fontColor=#1D3557;" vertex="1" parent="1">
          <mxGeometry x="-1160" y="-170" width="180" height="290" as="geometry" />
        </mxCell>
        <mxCell id="-Ajo2ekiVwMD1QqtX69g-811" value="" style="shape=tableRow;horizontal=0;startSize=0;swimlaneHead=0;swimlaneBody=0;fillColor=none;collapsible=0;dropTarget=0;points=[[0,0.5],[1,0.5]];portConstraint=eastwest;strokeColor=#457B9D;top=0;left=0;right=0;bottom=1;rounded=1;labelBackgroundColor=none;fontColor=#1D3557;" vertex="1" parent="-Ajo2ekiVwMD1QqtX69g-810">
          <mxGeometry y="30" width="180" height="30" as="geometry" />
        </mxCell>
        <mxCell id="-Ajo2ekiVwMD1QqtX69g-812" value="PK" style="shape=partialRectangle;overflow=hidden;connectable=0;fillColor=none;strokeColor=#457B9D;top=0;left=0;bottom=0;right=0;fontStyle=1;rounded=1;labelBackgroundColor=none;fontColor=#1D3557;" vertex="1" parent="-Ajo2ekiVwMD1QqtX69g-811">
          <mxGeometry width="30" height="30" as="geometry">
            <mxRectangle width="30" height="30" as="alternateBounds" />
          </mxGeometry>
        </mxCell>
        <mxCell id="-Ajo2ekiVwMD1QqtX69g-813" value="`id`" style="shape=partialRectangle;overflow=hidden;connectable=0;fillColor=none;align=left;strokeColor=#457B9D;top=0;left=0;bottom=0;right=0;spacingLeft=6;fontStyle=5;rounded=1;labelBackgroundColor=none;fontColor=#1D3557;" vertex="1" parent="-Ajo2ekiVwMD1QqtX69g-811">
          <mxGeometry x="30" width="150" height="30" as="geometry">
            <mxRectangle width="150" height="30" as="alternateBounds" />
          </mxGeometry>
        </mxCell>
        <mxCell id="-Ajo2ekiVwMD1QqtX69g-814" value="" style="shape=tableRow;horizontal=0;startSize=0;swimlaneHead=0;swimlaneBody=0;fillColor=none;collapsible=0;dropTarget=0;points=[[0,0.5],[1,0.5]];portConstraint=eastwest;strokeColor=#457B9D;top=0;left=0;right=0;bottom=0;rounded=1;labelBackgroundColor=none;fontColor=#1D3557;" vertex="1" parent="-Ajo2ekiVwMD1QqtX69g-810">
          <mxGeometry y="60" width="180" height="30" as="geometry" />
        </mxCell>
        <mxCell id="-Ajo2ekiVwMD1QqtX69g-815" value="" style="shape=partialRectangle;overflow=hidden;connectable=0;fillColor=none;strokeColor=#457B9D;top=0;left=0;bottom=0;right=0;rounded=1;labelBackgroundColor=none;fontColor=#1D3557;" vertex="1" parent="-Ajo2ekiVwMD1QqtX69g-814">
          <mxGeometry width="30" height="30" as="geometry">
            <mxRectangle width="30" height="30" as="alternateBounds" />
          </mxGeometry>
        </mxCell>
        <mxCell id="-Ajo2ekiVwMD1QqtX69g-816" value="`team_id`" style="shape=partialRectangle;overflow=hidden;connectable=0;fillColor=none;align=left;strokeColor=#457B9D;top=0;left=0;bottom=0;right=0;spacingLeft=6;rounded=1;labelBackgroundColor=none;fontColor=#1D3557;" vertex="1" parent="-Ajo2ekiVwMD1QqtX69g-814">
          <mxGeometry x="30" width="150" height="30" as="geometry">
            <mxRectangle width="150" height="30" as="alternateBounds" />
          </mxGeometry>
        </mxCell>
        <mxCell id="-Ajo2ekiVwMD1QqtX69g-817" value="" style="shape=tableRow;horizontal=0;startSize=0;swimlaneHead=0;swimlaneBody=0;fillColor=none;collapsible=0;dropTarget=0;points=[[0,0.5],[1,0.5]];portConstraint=eastwest;strokeColor=#457B9D;top=0;left=0;right=0;bottom=0;rounded=1;labelBackgroundColor=none;fontColor=#1D3557;" vertex="1" parent="-Ajo2ekiVwMD1QqtX69g-810">
          <mxGeometry y="90" width="180" height="30" as="geometry" />
        </mxCell>
        <mxCell id="-Ajo2ekiVwMD1QqtX69g-818" value="" style="shape=partialRectangle;overflow=hidden;connectable=0;fillColor=none;strokeColor=#457B9D;top=0;left=0;bottom=0;right=0;rounded=1;labelBackgroundColor=none;fontColor=#1D3557;" vertex="1" parent="-Ajo2ekiVwMD1QqtX69g-817">
          <mxGeometry width="30" height="30" as="geometry">
            <mxRectangle width="30" height="30" as="alternateBounds" />
          </mxGeometry>
        </mxCell>
        <mxCell id="-Ajo2ekiVwMD1QqtX69g-819" value="`username`" style="shape=partialRectangle;overflow=hidden;connectable=0;fillColor=none;align=left;strokeColor=#457B9D;top=0;left=0;bottom=0;right=0;spacingLeft=6;rounded=1;labelBackgroundColor=none;fontColor=#1D3557;" vertex="1" parent="-Ajo2ekiVwMD1QqtX69g-817">
          <mxGeometry x="30" width="150" height="30" as="geometry">
            <mxRectangle width="150" height="30" as="alternateBounds" />
          </mxGeometry>
        </mxCell>
        <mxCell id="-Ajo2ekiVwMD1QqtX69g-820" value="" style="shape=tableRow;horizontal=0;startSize=0;swimlaneHead=0;swimlaneBody=0;fillColor=none;collapsible=0;dropTarget=0;points=[[0,0.5],[1,0.5]];portConstraint=eastwest;strokeColor=#457B9D;top=0;left=0;right=0;bottom=0;rounded=1;labelBackgroundColor=none;fontColor=#1D3557;" vertex="1" parent="-Ajo2ekiVwMD1QqtX69g-810">
          <mxGeometry y="120" width="180" height="30" as="geometry" />
        </mxCell>
        <mxCell id="-Ajo2ekiVwMD1QqtX69g-821" value="" style="shape=partialRectangle;overflow=hidden;connectable=0;fillColor=none;strokeColor=#457B9D;top=0;left=0;bottom=0;right=0;rounded=1;labelBackgroundColor=none;fontColor=#1D3557;" vertex="1" parent="-Ajo2ekiVwMD1QqtX69g-820">
          <mxGeometry width="30" height="30" as="geometry">
            <mxRectangle width="30" height="30" as="alternateBounds" />
          </mxGeometry>
        </mxCell>
        <mxCell id="-Ajo2ekiVwMD1QqtX69g-822" value="`join_status`" style="shape=partialRectangle;overflow=hidden;connectable=0;fillColor=none;align=left;strokeColor=#457B9D;top=0;left=0;bottom=0;right=0;spacingLeft=6;rounded=1;labelBackgroundColor=none;fontColor=#1D3557;" vertex="1" parent="-Ajo2ekiVwMD1QqtX69g-820">
          <mxGeometry x="30" width="150" height="30" as="geometry">
            <mxRectangle width="150" height="30" as="alternateBounds" />
          </mxGeometry>
        </mxCell>
        <mxCell id="-Ajo2ekiVwMD1QqtX69g-823" value="" style="shape=tableRow;horizontal=0;startSize=0;swimlaneHead=0;swimlaneBody=0;fillColor=none;collapsible=0;dropTarget=0;points=[[0,0.5],[1,0.5]];portConstraint=eastwest;strokeColor=#457B9D;top=0;left=0;right=0;bottom=0;rounded=1;labelBackgroundColor=none;fontColor=#1D3557;" vertex="1" parent="-Ajo2ekiVwMD1QqtX69g-810">
          <mxGeometry y="150" width="180" height="30" as="geometry" />
        </mxCell>
        <mxCell id="-Ajo2ekiVwMD1QqtX69g-824" value="" style="shape=partialRectangle;overflow=hidden;connectable=0;fillColor=none;strokeColor=#457B9D;top=0;left=0;bottom=0;right=0;rounded=1;labelBackgroundColor=none;fontColor=#1D3557;" vertex="1" parent="-Ajo2ekiVwMD1QqtX69g-823">
          <mxGeometry width="30" height="30" as="geometry">
            <mxRectangle width="30" height="30" as="alternateBounds" />
          </mxGeometry>
        </mxCell>
        <mxCell id="-Ajo2ekiVwMD1QqtX69g-825" value="`delete_flag`" style="shape=partialRectangle;overflow=hidden;connectable=0;fillColor=none;align=left;strokeColor=#457B9D;top=0;left=0;bottom=0;right=0;spacingLeft=6;rounded=1;labelBackgroundColor=none;fontColor=#1D3557;" vertex="1" parent="-Ajo2ekiVwMD1QqtX69g-823">
          <mxGeometry x="30" width="150" height="30" as="geometry">
            <mxRectangle width="150" height="30" as="alternateBounds" />
          </mxGeometry>
        </mxCell>
        <mxCell id="-Ajo2ekiVwMD1QqtX69g-826" value="" style="shape=tableRow;horizontal=0;startSize=0;swimlaneHead=0;swimlaneBody=0;fillColor=none;collapsible=0;dropTarget=0;points=[[0,0.5],[1,0.5]];portConstraint=eastwest;strokeColor=#457B9D;top=0;left=0;right=0;bottom=0;rounded=1;labelBackgroundColor=none;fontColor=#1D3557;" vertex="1" parent="-Ajo2ekiVwMD1QqtX69g-810">
          <mxGeometry y="180" width="180" height="30" as="geometry" />
        </mxCell>
        <mxCell id="-Ajo2ekiVwMD1QqtX69g-827" value="" style="shape=partialRectangle;overflow=hidden;connectable=0;fillColor=none;strokeColor=#457B9D;top=0;left=0;bottom=0;right=0;rounded=1;labelBackgroundColor=none;fontColor=#1D3557;" vertex="1" parent="-Ajo2ekiVwMD1QqtX69g-826">
          <mxGeometry width="30" height="30" as="geometry">
            <mxRectangle width="30" height="30" as="alternateBounds" />
          </mxGeometry>
        </mxCell>
        <mxCell id="-Ajo2ekiVwMD1QqtX69g-828" value="`create_date`" style="shape=partialRectangle;overflow=hidden;connectable=0;fillColor=none;align=left;strokeColor=#457B9D;top=0;left=0;bottom=0;right=0;spacingLeft=6;rounded=1;labelBackgroundColor=none;fontColor=#1D3557;" vertex="1" parent="-Ajo2ekiVwMD1QqtX69g-826">
          <mxGeometry x="30" width="150" height="30" as="geometry">
            <mxRectangle width="150" height="30" as="alternateBounds" />
          </mxGeometry>
        </mxCell>
        <mxCell id="-Ajo2ekiVwMD1QqtX69g-829" value="" style="shape=tableRow;horizontal=0;startSize=0;swimlaneHead=0;swimlaneBody=0;fillColor=none;collapsible=0;dropTarget=0;points=[[0,0.5],[1,0.5]];portConstraint=eastwest;strokeColor=#457B9D;top=0;left=0;right=0;bottom=0;rounded=1;labelBackgroundColor=none;fontColor=#1D3557;" vertex="1" parent="-Ajo2ekiVwMD1QqtX69g-810">
          <mxGeometry y="210" width="180" height="30" as="geometry" />
        </mxCell>
        <mxCell id="-Ajo2ekiVwMD1QqtX69g-830" value="" style="shape=partialRectangle;overflow=hidden;connectable=0;fillColor=none;strokeColor=#457B9D;top=0;left=0;bottom=0;right=0;rounded=1;labelBackgroundColor=none;fontColor=#1D3557;" vertex="1" parent="-Ajo2ekiVwMD1QqtX69g-829">
          <mxGeometry width="30" height="30" as="geometry">
            <mxRectangle width="30" height="30" as="alternateBounds" />
          </mxGeometry>
        </mxCell>
        <mxCell id="-Ajo2ekiVwMD1QqtX69g-831" value="`update_date`" style="shape=partialRectangle;overflow=hidden;connectable=0;fillColor=none;align=left;strokeColor=#457B9D;top=0;left=0;bottom=0;right=0;spacingLeft=6;rounded=1;labelBackgroundColor=none;fontColor=#1D3557;" vertex="1" parent="-Ajo2ekiVwMD1QqtX69g-829">
          <mxGeometry x="30" width="150" height="30" as="geometry">
            <mxRectangle width="150" height="30" as="alternateBounds" />
          </mxGeometry>
        </mxCell>
        <mxCell id="-Ajo2ekiVwMD1QqtX69g-832" value="" style="shape=tableRow;horizontal=0;startSize=0;swimlaneHead=0;swimlaneBody=0;fillColor=none;collapsible=0;dropTarget=0;points=[[0,0.5],[1,0.5]];portConstraint=eastwest;strokeColor=#457B9D;top=0;left=0;right=0;bottom=0;rounded=1;labelBackgroundColor=none;fontColor=#1D3557;" vertex="1" parent="-Ajo2ekiVwMD1QqtX69g-810">
          <mxGeometry y="240" width="180" height="30" as="geometry" />
        </mxCell>
        <mxCell id="-Ajo2ekiVwMD1QqtX69g-833" value="" style="shape=partialRectangle;overflow=hidden;connectable=0;fillColor=none;strokeColor=#457B9D;top=0;left=0;bottom=0;right=0;rounded=1;labelBackgroundColor=none;fontColor=#1D3557;" vertex="1" parent="-Ajo2ekiVwMD1QqtX69g-832">
          <mxGeometry width="30" height="30" as="geometry">
            <mxRectangle width="30" height="30" as="alternateBounds" />
          </mxGeometry>
        </mxCell>
        <mxCell id="-Ajo2ekiVwMD1QqtX69g-834" value="`create_by`" style="shape=partialRectangle;overflow=hidden;connectable=0;fillColor=none;align=left;strokeColor=#457B9D;top=0;left=0;bottom=0;right=0;spacingLeft=6;rounded=1;labelBackgroundColor=none;fontColor=#1D3557;" vertex="1" parent="-Ajo2ekiVwMD1QqtX69g-832">
          <mxGeometry x="30" width="150" height="30" as="geometry">
            <mxRectangle width="150" height="30" as="alternateBounds" />
          </mxGeometry>
        </mxCell>
        <mxCell id="-Ajo2ekiVwMD1QqtX69g-835" value="" style="shape=tableRow;horizontal=0;startSize=0;swimlaneHead=0;swimlaneBody=0;fillColor=none;collapsible=0;dropTarget=0;points=[[0,0.5],[1,0.5]];portConstraint=eastwest;strokeColor=#457B9D;top=0;left=0;right=0;bottom=0;rounded=1;labelBackgroundColor=none;fontColor=#1D3557;" vertex="1" parent="-Ajo2ekiVwMD1QqtX69g-810">
          <mxGeometry y="270" width="180" height="20" as="geometry" />
        </mxCell>
        <mxCell id="-Ajo2ekiVwMD1QqtX69g-836" value="" style="shape=partialRectangle;overflow=hidden;connectable=0;fillColor=none;strokeColor=#457B9D;top=0;left=0;bottom=0;right=0;rounded=1;labelBackgroundColor=none;fontColor=#1D3557;" vertex="1" parent="-Ajo2ekiVwMD1QqtX69g-835">
          <mxGeometry width="30" height="20" as="geometry">
            <mxRectangle width="30" height="20" as="alternateBounds" />
          </mxGeometry>
        </mxCell>
        <mxCell id="-Ajo2ekiVwMD1QqtX69g-837" value="`update_by`" style="shape=partialRectangle;overflow=hidden;connectable=0;fillColor=none;align=left;strokeColor=#457B9D;top=0;left=0;bottom=0;right=0;spacingLeft=6;rounded=1;labelBackgroundColor=none;fontColor=#1D3557;" vertex="1" parent="-Ajo2ekiVwMD1QqtX69g-835">
          <mxGeometry x="30" width="150" height="20" as="geometry">
            <mxRectangle width="150" height="20" as="alternateBounds" />
          </mxGeometry>
        </mxCell>
        <mxCell id="-Ajo2ekiVwMD1QqtX69g-840" style="edgeStyle=orthogonalEdgeStyle;shape=connector;curved=0;rounded=1;jumpStyle=arc;orthogonalLoop=1;jettySize=auto;html=1;exitX=0;exitY=0.5;exitDx=0;exitDy=0;strokeColor=#003333;align=center;verticalAlign=middle;fontFamily=Helvetica;fontSize=11;fontColor=#1D3557;labelBackgroundColor=default;endArrow=classic;fillColor=#A8DADC;" edge="1" parent="1" source="-Ajo2ekiVwMD1QqtX69g-780" target="-Ajo2ekiVwMD1QqtX69g-814">
          <mxGeometry relative="1" as="geometry">
            <Array as="points">
              <mxPoint x="-1190" y="205" />
              <mxPoint x="-1190" y="-95" />
            </Array>
          </mxGeometry>
        </mxCell>
        <mxCell id="-Ajo2ekiVwMD1QqtX69g-841" style="edgeStyle=orthogonalEdgeStyle;shape=connector;curved=0;rounded=1;jumpStyle=arc;orthogonalLoop=1;jettySize=auto;html=1;exitX=1;exitY=0.5;exitDx=0;exitDy=0;strokeColor=#003333;align=center;verticalAlign=middle;fontFamily=Helvetica;fontSize=11;fontColor=#1D3557;labelBackgroundColor=default;endArrow=classic;fillColor=#A8DADC;" edge="1" parent="1" source="-Ajo2ekiVwMD1QqtX69g-752" target="-Ajo2ekiVwMD1QqtX69g-783">
          <mxGeometry relative="1" as="geometry" />
        </mxCell>
        <mxCell id="-Ajo2ekiVwMD1QqtX69g-842" style="edgeStyle=orthogonalEdgeStyle;shape=connector;curved=0;rounded=1;jumpStyle=arc;orthogonalLoop=1;jettySize=auto;html=1;exitX=1;exitY=0.5;exitDx=0;exitDy=0;strokeColor=#003333;align=center;verticalAlign=middle;fontFamily=Helvetica;fontSize=11;fontColor=#1D3557;labelBackgroundColor=default;endArrow=classic;fillColor=#A8DADC;" edge="1" parent="1" source="-Ajo2ekiVwMD1QqtX69g-752" target="-Ajo2ekiVwMD1QqtX69g-727">
          <mxGeometry relative="1" as="geometry">
            <Array as="points">
              <mxPoint x="-1190" y="235" />
              <mxPoint x="-1190" y="585" />
            </Array>
          </mxGeometry>
        </mxCell>
        <mxCell id="-Ajo2ekiVwMD1QqtX69g-843" style="edgeStyle=orthogonalEdgeStyle;shape=connector;curved=0;rounded=1;jumpStyle=arc;orthogonalLoop=1;jettySize=auto;html=1;exitX=0;exitY=0.5;exitDx=0;exitDy=0;entryX=0;entryY=0.5;entryDx=0;entryDy=0;strokeColor=#003333;align=center;verticalAlign=middle;fontFamily=Helvetica;fontSize=11;fontColor=#1D3557;labelBackgroundColor=default;endArrow=classic;fillColor=#A8DADC;" edge="1" parent="1" source="-Ajo2ekiVwMD1QqtX69g-699" target="-Ajo2ekiVwMD1QqtX69g-724">
          <mxGeometry relative="1" as="geometry">
            <Array as="points">
              <mxPoint x="-950" y="205" />
              <mxPoint x="-950" y="555" />
            </Array>
          </mxGeometry>
        </mxCell>
        <mxCell id="-Ajo2ekiVwMD1QqtX69g-844" style="edgeStyle=orthogonalEdgeStyle;shape=connector;curved=0;rounded=1;jumpStyle=arc;orthogonalLoop=1;jettySize=auto;html=1;exitX=1;exitY=0.5;exitDx=0;exitDy=0;strokeColor=#003333;align=center;verticalAlign=middle;fontFamily=Helvetica;fontSize=11;fontColor=#1D3557;labelBackgroundColor=default;endArrow=classic;fillColor=#A8DADC;" edge="1" parent="1" source="-Ajo2ekiVwMD1QqtX69g-699" target="-Ajo2ekiVwMD1QqtX69g-674">
          <mxGeometry relative="1" as="geometry" />
        </mxCell>
        <mxCell id="-Ajo2ekiVwMD1QqtX69g-845" style="edgeStyle=orthogonalEdgeStyle;shape=connector;curved=0;rounded=1;jumpStyle=arc;orthogonalLoop=1;jettySize=auto;html=1;strokeColor=#003333;align=center;verticalAlign=middle;fontFamily=Helvetica;fontSize=11;fontColor=#1D3557;labelBackgroundColor=default;endArrow=classic;fillColor=#A8DADC;" edge="1" parent="1" source="-Ajo2ekiVwMD1QqtX69g-699" target="-Ajo2ekiVwMD1QqtX69g-637">
          <mxGeometry relative="1" as="geometry" />
        </mxCell>
        <mxCell id="-Ajo2ekiVwMD1QqtX69g-846" style="edgeStyle=orthogonalEdgeStyle;shape=connector;curved=0;rounded=1;jumpStyle=arc;orthogonalLoop=1;jettySize=auto;html=1;exitX=1;exitY=0.5;exitDx=0;exitDy=0;entryX=1;entryY=0.5;entryDx=0;entryDy=0;strokeColor=#003333;align=center;verticalAlign=middle;fontFamily=Helvetica;fontSize=11;fontColor=#1D3557;labelBackgroundColor=default;endArrow=classic;fillColor=#A8DADC;" edge="1" parent="1" source="-Ajo2ekiVwMD1QqtX69g-634" target="-Ajo2ekiVwMD1QqtX69g-677">
          <mxGeometry relative="1" as="geometry">
            <Array as="points">
              <mxPoint x="-470" y="205" />
              <mxPoint x="-470" y="-65" />
            </Array>
          </mxGeometry>
        </mxCell>
        <mxCell id="-Ajo2ekiVwMD1QqtX69g-847" style="edgeStyle=orthogonalEdgeStyle;shape=connector;curved=0;rounded=1;jumpStyle=arc;orthogonalLoop=1;jettySize=auto;html=1;exitX=1;exitY=0.5;exitDx=0;exitDy=0;strokeColor=#003333;align=center;verticalAlign=middle;fontFamily=Helvetica;fontSize=11;fontColor=#1D3557;labelBackgroundColor=default;endArrow=classic;fillColor=#A8DADC;" edge="1" parent="1" source="-Ajo2ekiVwMD1QqtX69g-634" target="-Ajo2ekiVwMD1QqtX69g-584">
          <mxGeometry relative="1" as="geometry" />
        </mxCell>
      </root>
    </mxGraphModel>
  </diagram>
</mxfile>
